<svg width="28" height="28" viewBox="0 0 28 28" fill="none" xmlns="http://www.w3.org/2000/svg">
<g clip-path="url(#clip0_211_684)">
<path d="M14.4533 14.1876C14.0783 14.1876 13.7241 14.3959 13.3908 14.8125V12.2966H12.344V19.9999H13.3908V19.4372C13.7344 19.8645 14.0884 20.078 14.4533 20.078C14.8803 20.078 15.1562 19.8594 15.2813 19.4218C15.3541 19.2027 15.3907 18.8229 15.3907 18.2809V15.9996C15.3907 15.4477 15.354 15.0622 15.2813 14.8436C15.1562 14.4059 14.8803 14.1876 14.4533 14.1876ZM14.3595 18.3592C14.3595 18.8702 14.2084 19.1246 13.9063 19.1246C13.7291 19.1246 13.5573 19.0415 13.3908 18.875V15.3747C13.5573 15.2087 13.7291 15.125 13.9063 15.125C14.2082 15.125 14.3595 15.3856 14.3595 15.9063V18.3592Z" fill="#F4F5FB"/>
<path d="M17.7654 14.1876C17.2343 14.1876 16.8173 14.386 16.5154 14.7815C16.307 15.0622 16.2029 15.5109 16.2029 16.1249V18.141C16.2029 18.7555 16.3123 19.203 16.5311 19.4845C16.833 19.8807 17.255 20.0783 17.7967 20.0783C18.3489 20.0783 18.7655 19.8701 19.0467 19.4532C19.1718 19.2657 19.2499 19.0577 19.2812 18.8281C19.3019 18.6828 19.3123 18.4581 19.3123 18.1559V18.0155H18.2498C18.2498 18.1302 18.2498 18.242 18.2498 18.3511C18.2498 18.4602 18.2471 18.5463 18.2421 18.6092C18.2368 18.6714 18.2344 18.708 18.2344 18.7184C18.172 18.9895 18.0156 19.1242 17.7657 19.1242C17.4114 19.1242 17.2346 18.8586 17.2346 18.3278V17.312H19.3125V16.1248C19.3125 15.5211 19.2032 15.0731 18.9845 14.7812C18.7031 14.386 18.2968 14.1876 17.7654 14.1876ZM18.2655 16.4531H17.2343V15.9214C17.2343 15.3904 17.4061 15.125 17.7498 15.125C18.0936 15.125 18.2655 15.3906 18.2655 15.9214V16.4531Z" fill="#F4F5FB"/>
<path d="M10.4062 18.6405C10.1771 18.9634 9.95824 19.1246 9.75 19.1246C9.60395 19.1246 9.52588 19.0465 9.51582 18.8901C9.50519 18.8699 9.50015 18.734 9.50015 18.4843V14.2656H8.46899V18.7968C8.46899 19.193 8.50032 19.4737 8.56272 19.6403C8.65649 19.9327 8.87527 20.0779 9.21893 20.0779C9.60425 20.0779 10.0002 19.8434 10.4065 19.3748V19.9999H11.4533V14.2657H10.4065V18.6405H10.4062V18.6405Z" fill="#F4F5FB"/>
<path d="M11.7657 8.37511C12.099 8.37511 12.2657 8.10904 12.2657 7.57792V5.14009C12.2657 4.59861 12.099 4.32776 11.7657 4.32776C11.4321 4.32776 11.2656 4.59861 11.2656 5.14009V7.57792C11.2656 8.10899 11.4321 8.37511 11.7657 8.37511Z" fill="#F4F5FB"/>
<path d="M4.6875 13.3905H5.90615V19.9999H7.06241V13.3905H8.31235V12.2966H4.6875V13.3905Z" fill="#F4F5FB"/>
<path d="M19.5001 0H4.50015C3.26053 0 2.20069 0.440555 1.32036 1.32006C0.440035 2.20095 0 3.26053 0 4.5001V19.4999C0 20.7394 0.440035 21.7995 1.32036 22.6791C2.20043 23.5591 3.26027 24 4.50015 24H19.5001C20.7395 24 21.7993 23.5594 22.6796 22.6791C23.5596 21.7995 24 20.7394 24 19.4999V4.5001C24 3.26049 23.5597 2.20091 22.6796 1.32006C21.7993 0.440555 20.7395 0 19.5001 0ZM14.172 3.46868H15.2188V7.71837C15.2188 7.96853 15.2241 8.10421 15.2345 8.12495C15.2448 8.29223 15.3282 8.37511 15.4843 8.37511C15.6925 8.37511 15.9114 8.21391 16.1405 7.89047V3.46868H17.1873V9.24984H16.1405V8.62474C15.7132 9.09346 15.3123 9.32794 14.9373 9.32794C14.6038 9.32794 14.3799 9.18748 14.2655 8.90622C14.2031 8.71877 14.1718 8.43247 14.1718 8.04689V3.46868H14.172ZM10.2186 5.34355C10.2186 4.73993 10.328 4.28636 10.5469 3.98444C10.8281 3.58901 11.2344 3.39062 11.7655 3.39062C12.2756 3.39062 12.6819 3.58901 12.9841 3.98444C13.2029 4.28662 13.3121 4.73993 13.3121 5.34355V7.3748C13.3121 7.99964 13.2027 8.45326 12.9841 8.73391C12.6819 9.13012 12.2756 9.32773 11.7655 9.32773C11.2344 9.32773 10.8281 9.12986 10.5469 8.73391C10.328 8.43251 10.2186 7.97946 10.2186 7.3748V5.34355ZM7.40639 1.48447L8.23465 4.53122L9.03132 1.48447H10.2032L8.79709 6.10967V9.24988H7.64088V6.10967C7.52615 5.5366 7.28663 4.71389 6.92205 3.64082C6.84902 3.40156 6.72896 3.04197 6.56246 2.56241C6.39571 2.08388 6.27061 1.7243 6.18747 1.48451H7.40639V1.48447ZM20.2814 20.3435C20.177 20.7921 19.9555 21.1718 19.6172 21.4844C19.2786 21.7969 18.8853 21.9793 18.4376 22.0311C17.0104 22.1873 14.8645 22.2656 12.0002 22.2656C9.13537 22.2656 6.9897 22.1875 5.56285 22.0311C5.11483 21.9793 4.72157 21.7967 4.38325 21.4844C4.04466 21.1718 3.82319 20.7923 3.71936 20.3435C3.5109 19.4688 3.40681 18.1144 3.40681 16.281C3.40681 14.4793 3.5109 13.1249 3.71936 12.2186C3.82345 11.7607 4.04493 11.3781 4.38325 11.0705C4.72157 10.763 5.12017 10.5835 5.57852 10.5309C6.99499 10.3747 9.13568 10.2964 12.0005 10.2964C14.8754 10.2964 17.0211 10.3745 18.4378 10.5309C18.8858 10.5835 19.2818 10.7627 19.6254 11.0705C19.9693 11.378 20.1932 11.7607 20.2973 12.2186C20.4951 13.0834 20.5941 14.4373 20.5941 16.281C20.5937 18.1144 20.4896 19.4688 20.2814 20.3435Z" fill="#F4F5FB"/>
</g>
<defs>
<clipPath id="clip0_211_684">
<rect width="28" height="28" fill="white"/>
</clipPath>
</defs>
</svg>
