<svg width="18" height="18" viewBox="0 0 18 18" fill="none" xmlns="http://www.w3.org/2000/svg">
<g clip-path="url(#clip0_30_411)">
<path d="M15.8567 2.1412C14.4758 0.761605 12.6375 0 10.6859 0C8.73427 0 6.89593 0.761605 5.51065 2.1412C4.12972 3.52079 3.36738 5.35735 3.36738 7.31141C3.36738 8.87814 3.85528 10.3665 4.76573 11.6069L0 16.368L1.63359 18L6.40368 13.2345C7.64085 14.131 9.12633 14.6185 10.6859 14.6185C12.6418 14.6185 14.4758 13.8569 15.8611 12.4773C17.242 11.0977 18.0044 9.26112 18.0044 7.30706C18 5.35735 17.242 3.52079 15.8567 2.1412ZM14.9332 11.5546C13.7962 12.6905 12.289 13.3129 10.6859 13.3129C9.08277 13.3129 7.57115 12.6905 6.43853 11.5546C5.30155 10.4188 4.67861 8.91296 4.67861 7.31141C4.67861 5.70986 5.30155 4.19971 6.43853 3.06818C7.57115 1.92795 9.07841 1.30561 10.6859 1.30561C12.2933 1.30561 13.8006 1.92795 14.9332 3.06383C16.0702 4.19971 16.6931 5.70551 16.6931 7.30706C16.6931 8.90861 16.0702 10.4188 14.9332 11.5546Z" fill="white"/>
<path d="M11.5657 4.22583H9.86681V6.48889H7.60156V8.18618H9.86681V10.4492H11.5657V8.18618H13.831V6.48889H11.5657V4.22583Z" fill="white"/>
</g>
<defs>
<clipPath id="clip0_30_411">
<rect width="18" height="18" fill="white"/>
</clipPath>
</defs>
</svg>
