<svg xmlns="http://www.w3.org/2000/svg" id="Layer_1" data-name="Layer 1" viewBox="0 0 79.64 71.04">
  <path fill="#28282c" d="M336.82,405.08c2.18,14.09-5.14,29.6-15.33,39-10.89,10.06-27.09,15.44-41.18,9.07-7.69-3.48-15.11-10-18.32-18-.41-1,1.2-1.75,1.76-.81,3.87,6.49,8.58,12.08,15.3,15.79a30.28,30.28,0,0,0,21.53,3.05c13.29-3,24.35-12.84,30.23-25,3.58-7.38,4.64-15.08,5.17-23.16a.42.42,0,0,1,.84,0Z" transform="translate(-258.03 -384.88)"></path>
  <path fill="#0d0d0e" d="M294.34,387.43a62.76,62.76,0,0,1,30.79,1.27c3.42,1,6.55,2.51,9.61,7.32,2.84,5.73,1.91,12.8-1.09,18.45-6.3,11.87-15.86,24-31.91,30.54-19.33,7.87-28.5,2.81-35.22-4.63-3.39-3.74-7.75-11.92-7.21-18.89s3.92-13.5,8.53-18.76A49.55,49.55,0,0,1,294.34,387.43Z" transform="translate(-258.03 -384.88)"></path>
  <path fill="#28282c" d="M294,386.26a63.41,63.41,0,0,1,24.82-.3c6.92,1.27,14.47,3.37,17.49,10.51s.75,14.58-2.85,20.92a71,71,0,0,1-15.05,18.82,60.65,60.65,0,0,1-22.78,12.24c-5.79,1.68-12.14,2.53-18,.78-10.53-3.13-18.49-14.16-19.47-24.89-.8-8.66,4.05-17.38,9.78-23.5A51.38,51.38,0,0,1,294,386.26c1.53-.35,2.26,2,.72,2.33-14.92,3.43-30.61,14.11-33.77,30-2.08,10.49,4.78,22.47,14.3,27.09a23.94,23.94,0,0,0,14.28,1.64,55.5,55.5,0,0,0,21.86-8.84A60.81,60.81,0,0,0,327,423c4-5.61,8.19-12.1,8.24-19.2a14,14,0,0,0-4.74-11c-2.68-2.34-6.18-3.15-9.56-3.91a61.23,61.23,0,0,0-26.23-.3C293.18,388.92,292.44,386.59,294,386.26Z" transform="translate(-258.03 -384.88)"></path>
  <path fill="#0d0d0e" d="M290.73,403.1c5.46-.79,12,.09,14.89,4.66s3.41,10.88,1,14.9c-3,5.08-8.12,9-14,9.86s-12.22-1.85-15.1-7a14.6,14.6,0,0,1,.6-14.54A17.89,17.89,0,0,1,290.73,403.1Z" transform="translate(-258.03 -384.88)"></path>
  <path fill="#28282c" d="M290.71,402.39c6.42-.86,13.51.41,16.5,6.8a17,17,0,0,1,1.49,9.67c-.52,3.45-2.62,6.43-5.08,8.83-5,4.84-12.14,7.12-18.81,4.65a14.3,14.3,0,0,1-9.51-14.78c.71-8.21,7.61-13.89,15.41-15.17.9-.15,1,1.28.05,1.43-6.39,1.05-12.26,5.41-13.73,11.93a12.86,12.86,0,0,0,6.55,14.49c5.7,3,12.37,1.79,17.33-2.07,5.17-4,7.79-9.78,5.84-16.22-1-3.34-2.95-6.05-6.28-7.35a19.63,19.63,0,0,0-9.71-.78C289.85,403.94,289.8,402.51,290.71,402.39Z" transform="translate(-258.03 -384.88)"></path>
  <path fill="#28282c" d="M303.12,423.33c-4.84,5.23-13.46,10-20.79,8a.87.87,0,0,1,.37-1.69,19.44,19.44,0,0,0,10.3-.92c3.64-1.39,6.49-3.78,9.72-5.85a.31.31,0,0,1,.4.47Z" transform="translate(-258.03 -384.88)"></path>
  <path fill="#28282c" d="M303.82,421.55a22.26,22.26,0,0,1,1.07-2.58c.37-.72,1.43-.16,1.11.58a22.31,22.31,0,0,1-1.32,2.45.49.49,0,0,1-.86-.45Z" transform="translate(-258.03 -384.88)"></path>
  <path fill="#28282c" d="M297.13,424.42a25.82,25.82,0,0,1-10.34,3.83c-2.48.35-7.93,1.09-9.43-1.53-.39-.68.53-1.59,1.12-.94,1.83,2,7.08,1.27,9.5.89a25.83,25.83,0,0,0,8.64-3,.47.47,0,0,1,.51.79Z" transform="translate(-258.03 -384.88)"></path>
  <path fill="#28282c" d="M292.56,423.06c-2.65,1.83-5.79,2.13-8.94,2.13-2.42,0-5.62-.17-7.33-2.13-.52-.59,0-1.7.85-1.23a13.53,13.53,0,0,0,6.73,2c2.84.12,5.8.09,8.29-1.45a.38.38,0,0,1,.4.64Z" transform="translate(-258.03 -384.88)"></path>
  <path fill="#28282c" d="M283.11,421.6c-1.23-.18-2.49-.25-3.73-.4-1.08-.14-2.41-.11-3.29-.8-.56-.43-.11-1.19.46-1.27,1-.15,2.29.56,3.28.85a24.13,24.13,0,0,0,3.45.85c.5.08.33.84-.17.77Z" transform="translate(-258.03 -384.88)"></path>
  <path fill="#28282c" d="M301.23,408.1c-3.36-1.66-7.15-.91-10.72-.65-1,.07-1.35-1.6-.31-1.8,3.92-.76,8.12-.89,11.56,1.41.61.41.15,1.38-.53,1Z" transform="translate(-258.03 -384.88)"></path>
  <path fill="#28282c" d="M288.57,407.76a27.89,27.89,0,0,0-5.46,2.67.63.63,0,0,1-.68-1.07,15,15,0,0,1,5.8-2.72.59.59,0,0,1,.34,1.12Z" transform="translate(-258.03 -384.88)"></path>
  <path fill="#28282c" d="M308.75,436.46a51,51,0,0,1-21.85,9.74c-5.24.9-14.33,2.49-18.07-2.5-.66-.89.61-1.71,1.38-1.16,2.58,1.83,5.7,2.1,8.77,2a51,51,0,0,0,9.7-1.06,54.42,54.42,0,0,0,19.48-8c.59-.4,1.16.51.59.94Z" transform="translate(-258.03 -384.88)"></path>
  <path fill="#28282c" d="M311.1,433.33a81.58,81.58,0,0,0,15.08-18.87c.62-1,2.24-.22,1.68.86a57.82,57.82,0,0,1-16.05,18.85c-.49.37-1.17-.42-.71-.84Z" transform="translate(-258.03 -384.88)"></path>
  <path fill="#28282c" d="M291.22,440.32a30.16,30.16,0,0,1-15.29,2.92c-4.49-.46-9.64-2.4-12.37-6.19-.62-.87.63-1.84,1.4-1.18,3.51,3,7,5.08,11.68,5.62,4.84.56,9.73-.6,14.23-2.31.73-.27,1,.84.35,1.14Z" transform="translate(-258.03 -384.88)"></path>
  <path fill="#28282c" d="M275.09,404.05A29.93,29.93,0,0,0,264.9,413c-2.31,3.37-4.92,8.42-4.16,12.63a1,1,0,0,1-1.94.6c-1.52-4.35,1.88-10.11,4.28-13.54a27.82,27.82,0,0,1,11.55-9.64c.57-.25,1,.69.46,1Z" transform="translate(-258.03 -384.88)"></path>
  <path fill="#28282c" d="M269.38,437.12c-2.23.49-5,.43-6.87-1-.82-.64.13-1.69,1-1.38s1.79.83,2.75,1.08a9.06,9.06,0,0,0,3,.26c.61,0,.79.93.18,1.07Z" transform="translate(-258.03 -384.88)"></path>
  <path fill="#28282c" d="M317.11,392.48a103.41,103.41,0,0,0-22,1.06c-.87.13-1.06-1.25-.25-1.49a47.53,47.53,0,0,1,22.42-1.16c.88.16.78,1.65-.15,1.59Z" transform="translate(-258.03 -384.88)"></path>
  <path fill="#28282c" d="M292.7,393.77c-2.45,1-5,1.65-7.53,2.52-1,.34-1.45-1.18-.48-1.56a26.25,26.25,0,0,1,7.82-2,.56.56,0,0,1,.19,1.08Z" transform="translate(-258.03 -384.88)"></path>
  <path fill="#28282c" d="M281.34,397.47c-2.27,1.85-5.33,3-7.93,4.39-.75.38-1.46-.69-.72-1.12,2.53-1.46,5.64-3.21,8.59-3.46.11,0,.13.13.06.19Z" transform="translate(-258.03 -384.88)"></path>
  <path fill="#28282c" d="M273,411.44a30.59,30.59,0,0,0-8.61,12.11c-.5,1.21-2.24.26-1.79-.92A29.82,29.82,0,0,1,272,409.9c.92-.75,1.87.8,1,1.54Z" transform="translate(-258.03 -384.88)"></path>
  <path fill="#28282c" d="M263.3,425.28a3.31,3.31,0,0,1-.16,1.24,6.62,6.62,0,0,0-.12,1.25c0,1.1-1.72,1.16-1.69.07a3.69,3.69,0,0,1,.39-1.7c.21-.42.6-1,1.1-1.12a.39.39,0,0,1,.48.26Z" transform="translate(-258.03 -384.88)"></path>
  <path fill="#28282c" d="M316.15,443.84a32.32,32.32,0,0,1-11,6.8c-.7.27-1-.82-.34-1.1a42.06,42.06,0,0,0,10.74-6.41c.41-.33,1,.35.6.71Z" transform="translate(-258.03 -384.88)"></path>
  <path fill="#28282c" d="M309.62,445.82a47.92,47.92,0,0,1-19.68,6.66c-.8.08-.82-1.13,0-1.24A52.2,52.2,0,0,0,309,444.77c.69-.41,1.37.64.67,1.05Z" transform="translate(-258.03 -384.88)"></path>
  <path fill="#28282c" d="M313.51,441.71a58.89,58.89,0,0,0,6-4.58c.54-.47,1.37.24.84.75a42.82,42.82,0,0,1-6.16,4.83.59.59,0,0,1-.64-1Z" transform="translate(-258.03 -384.88)"></path>
  <path fill="#28282c" d="M324.11,433.31a61.08,61.08,0,0,0,5-8.27.62.62,0,0,1,1.11.57A55.71,55.71,0,0,1,325,434.1c-.45.62-1.32-.18-.88-.79Z" transform="translate(-258.03 -384.88)"></path>
  <path fill="#28282c" d="M319.18,440.68c1-1.05,2.05-2.1,3.08-3.14.57-.59,1.53.28.94.85l-3.14,3.09c-.54.54-1.42-.25-.88-.8Z" transform="translate(-258.03 -384.88)"></path>
</svg>