<svg xmlns="http://www.w3.org/2000/svg" id="Layer_1" data-name="Layer 1" viewBox="0 0 75.31 75.31"><defs><style>.cls-1{fill:#28282c;}</style></defs><path class="cls-1" d="M279.21,454a21.64,21.64,0,0,0-.4-14.4,38.47,38.47,0,0,0-3.4-6.79c-.65-1.05-1.33-2.07-2-3.09s-1.5-2.92-2.93-2.9c-.92,0-1.77.42-2.74.37a8,8,0,0,1-2.55-.55,7.74,7.74,0,0,1-4-3.57,7.94,7.94,0,0,1,2.21-9.68c-.14.42-.27.85-.4,1.27-1-2.68-2-5.77-.86-8.56.94-2.25,3.19-4,5.69-3.47l-1.26,1.15a14,14,0,0,1,5.06-12.63c3.15-2.59,9.75-4.54,12.15,0l-2.05.19c.33-4.61,5.81-6.56,9.24-3.75,3.83,3.15,3,8.91-.39,12-.22-.6-.44-1.21-.65-1.81,4.58,1.39,10.79,4.34,9.27,10.26-1.28,5-6.66,8.07-11.44,8.77.12-.7.24-1.4.37-2.1,3.32,1.34,3.06,5.77.53,7.74-3.51,2.72-8.34.93-12.18.07l1-1.6a82.53,82.53,0,0,0,8.25,10.9l-1.9.42a25.34,25.34,0,0,0,.54-9.18,1.11,1.11,0,0,1,2.21-.21,26.91,26.91,0,0,1-.68,9.75,1.07,1.07,0,0,1-1.9.42,83.92,83.92,0,0,1-8.2-10.92,1,1,0,0,1,1-1.6c2.6.6,5.6,1.68,8.29,1.24a4.1,4.1,0,0,0,3.19-2.11,2.19,2.19,0,0,0-1.14-2.93c-1.07-.43-.65-2,.37-2.1,3.74-.51,7.84-2.69,9.38-6.32,2.13-5-3.72-7.24-7.39-8.31-.71-.21-1.33-1.17-.65-1.81,2.23-2.14,3.79-5.5,1.69-8.3a4,4,0,0,0-3.86-1.73,3.37,3.37,0,0,0-2.88,3.25,1.07,1.07,0,0,1-1.93.71c-2.45-3.55-7.68-1-10,1.37a11.52,11.52,0,0,0-3.18,10.06,1.09,1.09,0,0,1-1.25,1.16c-2-.33-3.47,1.39-3.73,3.21-.3,2.06.56,4.08,1.32,6a1.12,1.12,0,0,1-.4,1.27,5.59,5.59,0,0,0,2,9.71,5.91,5.91,0,0,0,3.15,0,3.45,3.45,0,0,1,2.33.06,4.88,4.88,0,0,1,1.78,1.88c.7,1,1.39,2,2.06,3.06,4.4,6.74,9.23,16.82,4,24.43-.21.3-.78.05-.67-.31Z" transform="translate(-260.35 -383)"></path><path class="cls-1" d="M298.4,407.94c-1.66-4.8,2.44-9.57,7-10.67s10,2.66,11.14,7l-1.82-.32c2.43-3.17,6.26-6.71,10.4-4.07,4.36,2.78,3.86,8.51,1.58,12.46l-1.34-1.46a8.44,8.44,0,0,1,10.1,6.37c1.08,5-2.63,9.82-7.26,11.25l.51-1.61c2.1,3.62,2.93,8.26-1.1,10.91a8,8,0,0,1-6.07,1.07c-2.4-.52-4.06-1.91-6-3.31-2.19-1.59-5.3.78-7,2.3a20.85,20.85,0,0,0-4.16,5.57,66.34,66.34,0,0,0-3.23,7.51c-.48,1.25-1,2.5-1.48,3.73a7.07,7.07,0,0,1-1.82,3,3.83,3.83,0,0,1-2.84.56c-1.65-.16-3.3-.45-4.93-.72-3.33-.57-6.64-1.31-9.91-2.17-1.4-.37-1-2.57.39-2.23,2.52.6,5.05,1.14,7.6,1.58,1.27.22,2.55.44,3.83.63a17.49,17.49,0,0,0,3.65.48c1.22-.11,1.55-1.75,2-2.75s.93-2.3,1.38-3.46a65.23,65.23,0,0,1,3-6.81,21.23,21.23,0,0,1,7.51-8.56c1.61-1,3.65-1.95,5.56-1.45s3.33,2.47,5.19,3.35c2.29,1.09,5.19,1.12,7.06-.82,2-2.12.93-5-.36-7.19a1.07,1.07,0,0,1,.5-1.6c3.52-1.11,6.67-4.48,6.15-8.39-.46-3.37-4.14-6.24-7.52-5.24a1.08,1.08,0,0,1-1.33-1.46c1.58-3,2.79-7.46-.59-9.8-3.18-2.2-6.11,1.4-7.83,3.71a1.07,1.07,0,0,1-1.82-.32c-.88-3.28-5.07-6.59-8.56-5.94a8.67,8.67,0,0,0-6.87,8.67c0,.39-.56.59-.71.17Z" transform="translate(-260.35 -383)"></path><path class="cls-1" d="M299.34,404c-.24,3.89.73,10.09,5.78,10.17a1.11,1.11,0,0,1,.74,2c-3.84,2.94-2.5,8.21,1.73,9.87a1.11,1.11,0,0,1,.61,1.2,3.44,3.44,0,0,0,1.72,3.87c1.57,1,3.38,1,5.11,1.47,1,.29,1.16,2-.08,2-4.22.15-10.2-2.62-8.94-7.74l.62,1.2c-6-2-6.73-10-2-13.69.25.67.49,1.34.74,2a7.1,7.1,0,0,1-6.16-4c-1.45-2.67-1.21-5.67-.94-8.58.07-.73,1.15-.51,1.11.19Z" transform="translate(-260.35 -383)"></path><path class="cls-1" d="M302.73,421.08a42.91,42.91,0,0,0-4.66,8.42c-.68,1.47-1.34,3-2,4.48-.68,1.67-1.15,3.47-1.94,5.09a1,1,0,0,1-1.84-.58,26.52,26.52,0,0,1,1.65-5.21,53.6,53.6,0,0,1,2.29-5.28,21.63,21.63,0,0,1,5.8-7.65c.46-.36,1,.3.66.73Z" transform="translate(-260.35 -383)"></path><path class="cls-1" d="M289.94,415.21a38.07,38.07,0,0,1,3.8,10.67,35.28,35.28,0,0,1,.64,6c0,.82,0,1.63,0,2.45,0,.54,0,1.1-.1,1.64,0,.13-.24.84-.23.85.18,1-1.44,1.17-1.62.15a32.22,32.22,0,0,1,0-4.91,42.21,42.21,0,0,0-.51-5.72c-.57-3.7-1.81-7.24-2.55-10.91-.06-.28.41-.46.55-.2Z" transform="translate(-260.35 -383)"></path><path class="cls-1" d="M308.09,431.3c-1.58,1.13-3.13,2.34-4.62,3.57s-2.66,2.67-4.25,3.47c-.58.29-1.24-.48-.93-1,.84-1.52,2.59-2.7,4-3.72a36.56,36.56,0,0,1,5.19-3.23c.63-.34,1.27.49.65.93Z" transform="translate(-260.35 -383)"></path><path class="cls-1" d="M305,425.92a35.24,35.24,0,0,0-5.2,11.45c-.28,1-1.83.77-1.62-.29a25.5,25.5,0,0,1,6.14-11.74c.38-.44,1,.12.68.58Z" transform="translate(-260.35 -383)"></path><path class="cls-1" d="M291.25,388.33a8.14,8.14,0,0,1,8.77-5.28c3.78.4,7.58,4.06,5.91,8l-1.26-1.38c3.92-1.65,9.13-.84,11.74,2.74a8,8,0,0,1-.57,10,1.08,1.08,0,1,1-1.45-1.58c2.21-1.76,1.88-5.42.23-7.44-2.23-2.73-6.14-2.8-9.25-1.86a1,1,0,0,1-1.26-1.38c1.47-3.29-2.86-5.53-5.54-5.4a8.85,8.85,0,0,0-6.72,3.89c-.24.37-.71,0-.6-.39Z" transform="translate(-260.35 -383)"></path><path class="cls-1" d="M302.38,439.5a40.61,40.61,0,0,0-8.22,16.66c-.19.73-1.32.55-1.17-.21a36.93,36.93,0,0,1,8.74-17,.43.43,0,0,1,.65.56Z" transform="translate(-260.35 -383)"></path><path class="cls-1" d="M296.44,441.28a124.11,124.11,0,0,0-4.28,14.53c-.19.81-1.49.58-1.29-.23a122.37,122.37,0,0,1,4.62-14.75c.25-.64,1.18-.18.95.45Z" transform="translate(-260.35 -383)"></path><path class="cls-1" d="M279.48,429.77a27.58,27.58,0,0,1,4.15,24.72c-.27.81-1.69.36-1.45-.47a27.39,27.39,0,0,0-3.56-23.65.52.52,0,0,1,.86-.6Z" transform="translate(-260.35 -383)"></path><path class="cls-1" d="M288.26,444.7q-.56,2.6-1.08,5.21a33.39,33.39,0,0,1-1.05,4.76c-.22.64-1.11.26-1.06-.33a36.31,36.31,0,0,1,1.16-4.9q.61-2.44,1.2-4.89c.13-.52.94-.39.83.15Z" transform="translate(-260.35 -383)"></path><path class="cls-1" d="M292.61,440.91c-1.21,4.84-2.59,9.66-3.49,14.57-.15.85-1.51.6-1.31-.23a138,138,0,0,1,4-14.59c.16-.45.91-.21.8.25Z" transform="translate(-260.35 -383)"></path><path class="cls-1" d="M289.22,403.4c3.4,1.4,2.89,5.91.09,7.65a5.08,5.08,0,0,1-5,.22,3.33,3.33,0,0,1-1.78-4,.66.66,0,0,1,1.2.05c.27,1.12.51,2.17,1.69,2.66a3.74,3.74,0,0,0,3.34-.43,3.8,3.8,0,0,0,.35-6,.09.09,0,0,1,.1-.15Z" transform="translate(-260.35 -383)"></path><path class="cls-1" d="M282,412.92c1.38,1.48,2.26,3.9.76,5.63-1.17,1.34-3.9,1.75-4.93,0a.74.74,0,0,1,1.09-1,2,2,0,0,0,2.79,0c1-1.09.63-2.93-.29-3.93-.39-.43.18-1.12.58-.69Z" transform="translate(-260.35 -383)"></path><path class="cls-1" d="M273.21,415.21c.45,2.5,0,6.06-2.91,6.88-2.76.78-4.63-2.2-4.66-4.59a.73.73,0,0,1,1.46-.14c.34,1.6,1.39,4.17,3.5,2.79a5.32,5.32,0,0,0,1.91-4.87c-.08-.45.62-.51.7-.07Z" transform="translate(-260.35 -383)"></path><path class="cls-1" d="M273,409.78c-.7-.95-2-2.34-3.34-2s-1,2.11-.8,3.07-1.26,1.64-1.58.58c-.53-1.75-.42-4.22,1.61-5,2.25-.81,3.7,1.2,4.85,2.74.34.47-.4,1-.74.52Z" transform="translate(-260.35 -383)"></path><path class="cls-1" d="M280.77,397.88c-.74-1-1.71-2.13-3-2.1a2.78,2.78,0,0,0-2.47,2.1c-.75,2.45,1,4.75,3.56,4.17.95-.22,1.17,1.24.36,1.59-3.74,1.61-6.38-3.18-5.32-6.31a4,4,0,0,1,3.75-2.82c1.8,0,3,1.46,3.89,2.87a.44.44,0,0,1-.72.5Z" transform="translate(-260.35 -383)"></path><path class="cls-1" d="M287.52,395.42a1.74,1.74,0,0,0-.19-3.05.55.55,0,0,1,.47-1,2.47,2.47,0,0,1,1.63,2.22A2.69,2.69,0,0,1,288,396c-.42.24-.85-.37-.43-.61Z" transform="translate(-260.35 -383)"></path><path class="cls-1" d="M284.69,400.07a5.3,5.3,0,0,1-3.35,5.54c-.59.19-1.14-.69-.53-1a4.79,4.79,0,0,0,2.82-4.42.53.53,0,0,1,1.06-.1Z" transform="translate(-260.35 -383)"></path><path class="cls-1" d="M276.61,407.93a3.45,3.45,0,0,1,1.79,3,3.4,3.4,0,0,1-1.81,3c-.7.37-1.44-.6-.73-1.05a2.61,2.61,0,0,0,.35-4.41c-.33-.22.07-.69.4-.47Z" transform="translate(-260.35 -383)"></path><path class="cls-1" d="M325,428.54a3.34,3.34,0,0,1-2.68,4.69c-2.85.35-4.87-1.93-5.61-4.44a.61.61,0,0,1,1.14-.42c.65,1.43,1.69,3,3.33,3.34s3.7-1,2.94-2.84c-.22-.56.64-.87.88-.33Z" transform="translate(-260.35 -383)"></path><path class="cls-1" d="M325.62,422c2.06,0,3.73-2.71,2.33-4.43-1.6-2-3.61.43-4.45,1.83a.64.64,0,0,1-1.16-.55,5.35,5.35,0,0,1,3.3-3.36,3.22,3.22,0,0,1,3.67,1.55,3.86,3.86,0,0,1-.29,4.13c-.75,1.11-2.19,2.05-3.48,1.24-.15-.1-.16-.41.08-.41Z" transform="translate(-260.35 -383)"></path><path class="cls-1" d="M321.6,411.86c-.18-1.42-1-3.87-2.88-3.18-1.49.54-1.69,2.38-2.09,3.69-.19.64-1.35.77-1.32-.05.07-2.15,1.08-4.89,3.58-5.09s3.55,2.48,3.71,4.53a.5.5,0,0,1-1,.1Z" transform="translate(-260.35 -383)"></path><path class="cls-1" d="M322.14,415.3a4.38,4.38,0,0,1-8.2.93c-.29-.56.64-1,1-.51a3.45,3.45,0,0,0,6.31-.71c.16-.51,1-.23.91.29Z" transform="translate(-260.35 -383)"></path><path class="cls-1" d="M310.83,407.72c.47-1.79-1.69-4.16-3.49-4.3-2.58-.21-2.21,4-1.65,5.43.3.77-.83,1.14-1.18.44-1.05-2.15-.79-7.23,2.59-7.09,2.52.1,5.34,3.25,4.45,5.74a.38.38,0,0,1-.72-.22Z" transform="translate(-260.35 -383)"></path><path class="cls-1" d="M318.12,424.78a2.83,2.83,0,0,0-3.85-3c-1.69.71-1.79,2.83-2.1,4.37-.14.69-1.26.7-1.28-.05-.09-2.57,1.06-5.56,4-5.77a3.76,3.76,0,0,1,3.93,4.59.35.35,0,0,1-.69-.12Z" transform="translate(-260.35 -383)"></path><path class="cls-1" d="M310.63,420.52a3.08,3.08,0,0,1-3.69.11,2,2,0,0,1-.15-3,.53.53,0,0,1,.78.67,1.15,1.15,0,0,0,.23,1.59,2,2,0,0,0,2.24-.25c.56-.36,1.15.49.59.85Z" transform="translate(-260.35 -383)"></path><path class="cls-1" d="M311.18,411.47a2.65,2.65,0,0,1,.37,2.64,1.53,1.53,0,0,1-2.25.5c-.62-.43.05-1.36.69-1.07.19.08.42-.13.5-.28a1.22,1.22,0,0,0-.2-1.17c-.36-.59.53-1.22.89-.62Z" transform="translate(-260.35 -383)"></path><path class="cls-1" d="M312,396a2,2,0,0,0-1.8-1.85,2,2,0,0,0-1.79,1.51c-.28.71-1.38.33-1.25-.39a2.88,2.88,0,0,1,5.7.76c0,.5-.81.44-.86,0Z" transform="translate(-260.35 -383)"></path><path class="cls-1" d="M303,393.54c2,.94-1,3.36-2,3.66a4.06,4.06,0,0,1-5-2.93c-.22-.8,1-1.26,1.22-.46a2.92,2.92,0,0,0,2.94,2.17,2.57,2.57,0,0,0,2.47-2.23.28.28,0,0,1,.4-.21Z" transform="translate(-260.35 -383)"></path><path class="cls-1" d="M299.65,390.7a1.67,1.67,0,0,0-1.16-1.88,1.7,1.7,0,0,0-1.68.83c-.41.54-1.1,0-.92-.6a2.24,2.24,0,0,1,3.08-1.14,2.07,2.07,0,0,1,.8,2.83c0,.05-.13,0-.12,0Z" transform="translate(-260.35 -383)"></path><path class="cls-1" d="M298.57,398.68a2.36,2.36,0,0,1-2.66,1.25,2.21,2.21,0,0,1-1.56-2.36c0-.64,1-.52,1.06,0,.18,1.07,1.65,1.79,2.32.67.3-.51,1.14-.13.84.4Z" transform="translate(-260.35 -383)"></path><path class="cls-1" d="M289.64,425.71A43,43,0,0,1,290,436.1c-.09.82-1.31.58-1.25-.23a50.58,50.58,0,0,0,0-10.07.47.47,0,0,1,.93-.09Z" transform="translate(-260.35 -383)"></path><path class="cls-1" d="M289.3,437.93c-.05.29-.09.56-.12.85a.56.56,0,1,1-1.1-.19,8.39,8.39,0,0,0,.18-.84.54.54,0,0,1,.61-.43.54.54,0,0,1,.43.61Z" transform="translate(-260.35 -383)"></path><path class="cls-1" d="M307.58,434.39c-.56.33-1.09.73-1.64,1.09a.63.63,0,0,1-.85-.16.62.62,0,0,1,.15-.85c.58-.31,1.2-.58,1.76-.91s1.15.5.58.83Z" transform="translate(-260.35 -383)"></path><path class="cls-1" d="M301.94,425.73c-.22.47-.37,1-.6,1.44s-1.27.15-1-.46.54-.89.78-1.35a.43.43,0,0,1,.78.37Z" transform="translate(-260.35 -383)"></path><path class="cls-1" d="M322.84,424.53a.84.84,0,0,1,.3-1.66.84.84,0,0,1-.3,1.66Z" transform="translate(-260.35 -383)"></path><path class="cls-1" d="M312.91,427.6l.08-.09a1,1,0,0,1,1.67.29l0,.11c.72,2.12-3.18,1.43-1.78-.31Z" transform="translate(-260.35 -383)"></path><path class="cls-1" d="M313.09,410.91a.88.88,0,0,1,.31-1.74.88.88,0,0,1-.31,1.74Z" transform="translate(-260.35 -383)"></path><path class="cls-1" d="M303.46,411.33a1.05,1.05,0,0,1,.37-2.07,1.05,1.05,0,0,1-.37,2.07Z" transform="translate(-260.35 -383)"></path><path class="cls-1" d="M306.54,394.1a1,1,0,0,1-.65.78l.39-.27a1,1,0,0,1-.69.35,1.13,1.13,0,0,1-.62-.16,1,1,0,0,1-.39-.48,1,1,0,0,1,.35-1.17.93.93,0,0,1,1.39.43v0l-.27-.39h0l-.21-.13h0l-.24-.08h-.24a1,1,0,0,1,.74.23,1.37,1.37,0,0,1,.2.22l-.86-.4h0l-.24.06h0l-.21.11h0l-.17.16h0l-.21.44v0a1,1,0,0,1,.38-.6,1,1,0,0,1,.69-.15.9.9,0,0,1,.6.38,1,1,0,0,1,.15.69Z" transform="translate(-260.35 -383)"></path><path class="cls-1" d="M299.24,391.9l.11,0-.32.39s0-.08,0-.13a.8.8,0,0,1,.91-.63l.05,0a.75.75,0,0,1,.44,1.22l0,0a.78.78,0,0,1-1.09.09l-.12-.11.51.09-.11,0a.53.53,0,0,1-.66-.3.52.52,0,0,1,.3-.66Z" transform="translate(-260.35 -383)"></path><path class="cls-1" d="M283.82,394.76l-.14,0a.93.93,0,0,1,.73,0,1,1,0,0,1,.48.53,1.23,1.23,0,0,1,.08.33.93.93,0,0,1-1.3.91,1.38,1.38,0,0,1-.28-.19,1,1,0,0,1-.33-.63.93.93,0,0,1,.22-.7c-.09.15-.11.19-.08.12a.76.76,0,0,1,.62-.43Z" transform="translate(-260.35 -383)"></path><path class="cls-1" d="M271,398.51h0l-.4.15a1,1,0,0,1,1-.08l-.25-.08h-.22l-.23.05h0l-.21.11h0l-.18.16,0,0a.91.91,0,0,1,1-.27.89.89,0,0,1,.63.78,1.06,1.06,0,0,1-.23.74,1,1,0,0,1-.68.35,1,1,0,0,1-1-.52.92.92,0,0,1-.1-.49.66.66,0,0,1,.08-.36c.17-.26.17-.27,0,0a.78.78,0,0,1,.66-.47Z" transform="translate(-260.35 -383)"></path><path class="cls-1" d="M271.91,413.47l0,0a.88.88,0,0,1-.16.89l0,0a.89.89,0,0,1-.81.29.86.86,0,0,1-.65-.55.05.05,0,0,1,0,0,.87.87,0,0,1,.15-.89l0,0a.87.87,0,0,1,.8-.29.9.9,0,0,1,.66.55Z" transform="translate(-260.35 -383)"></path><path class="cls-1" d="M273.83,424l.07-.11a.86.86,0,0,1,1.62.29l0,.12c.34,1.53-2.56,1-1.72-.3Z" transform="translate(-260.35 -383)"></path><path class="cls-1" d="M284.49,419.3a1.49,1.49,0,0,0,0-.21.91.91,0,1,1,1.73.31l-.09.18a.87.87,0,0,1-.92.48.91.91,0,0,1-.7-.76Z" transform="translate(-260.35 -383)"></path><path class="cls-1" d="M295.15,406.24a.79.79,0,0,1-.75.89,1,1,0,0,1-.78-.27.9.9,0,0,1-.28-.78.83.83,0,0,1,.44-.59.83.83,0,0,1,.75,0,.89.89,0,0,1,.47.68.69.69,0,0,0-.26-.45c-.2-.13.21.15.14.08a.78.78,0,0,1,.27.46Z" transform="translate(-260.35 -383)"></path><path class="cls-1" d="M285.79,404.08a1.15,1.15,0,0,1,.22-.76,1.35,1.35,0,0,1,.44-.31.84.84,0,0,1,.88.16,1.25,1.25,0,0,1,.31.44,1.13,1.13,0,0,1-.05.79,2.39,2.39,0,0,0-.13.21.77.77,0,0,1-.29.22,1,1,0,0,1-.6.1,1.17,1.17,0,0,1-.45-.21,1,1,0,0,1-.33-.64Z" transform="translate(-260.35 -383)"></path></svg>