<svg xmlns="http://www.w3.org/2000/svg" id="Layer_1" data-name="Layer 1" viewBox="0 0 106.34 87.69">
<defs><style>.cls-1{fill:#fffef9;}.cls-2{fill:#7cc254;}.cls-3{fill:#faa232;}</style></defs>
  <path fill="#0d0d0e" d="M347.73,394.11c-7.81.55-15.19,3.67-22.39,6.74a106.77,106.77,0,0,0,14.81-13c1.84-1.95,3.71-4.21,3.77-6.88a1.24,1.24,0,0,0-.25-.91c-.35-.36-.95-.23-1.42-.06-7.83,2.8-13.95,8.91-19.78,14.84A55.32,55.32,0,0,0,332,381.26c.61-1.21,1-3-.17-3.67A37.45,37.45,0,0,0,316,393.39c-1.26,2.43-2.27,5.17-1.76,7.86-.09,1.48,2.49,9,8.88,6.25,8.72-3.79,18.89-4.7,26-11a1.76,1.76,0,0,0,.76-1.29C349.85,394.28,348.63,394.05,347.73,394.11Z" transform="translate(-244.48 -376.54)"></path>
<path fill="#28282c" d="M347.58,393.07c-8,.64-15.38,3.71-22.66,6.82l1.07,1.78a108.74,108.74,0,0,0,13-11.21,29.3,29.3,0,0,0,4.65-5.42c.81-1.36,2-3.9.95-5.44s-3.12-.52-4.45,0a36.06,36.06,0,0,0-6.38,3.6,85.92,85.92,0,0,0-12,10.73l1.49,1.45a57.51,57.51,0,0,0,7.74-10.29c1.29-2.21,4.16-6.23,1.37-8.38a1,1,0,0,0-1.05-.13,39,39,0,0,0-14.21,12.8c-2.71,4.09-5.21,9.11-3.45,14.06,1.19,3.36,4.18,6.25,8,5.55a21.61,21.61,0,0,0,3.74-1.33c1.7-.66,3.43-1.22,5.17-1.77,3.18-1,6.41-1.89,9.53-3.08a30.53,30.53,0,0,0,9.46-5.38c2.43-2.18,1-4.47-2-4.41-1.35,0-1,2.1.3,2.08,1.66,0-.89,1.74-1.37,2.08a27.87,27.87,0,0,1-3.61,2.14,51.48,51.48,0,0,1-7.1,2.78c-2.46.8-4.95,1.51-7.42,2.3-2.29.75-4.63,2.07-7,2.52-3,.57-5.11-2.05-5.87-4.65-1.22-4.16,1.26-8.63,3.63-12.09a36.71,36.71,0,0,1,13.06-11.67l-1-.13c1.17.9-.85,3.79-1.31,4.61-.76,1.36-1.58,2.68-2.44,4a57.74,57.74,0,0,1-5.78,7.17c-.81.86.65,2.3,1.49,1.45a110.68,110.68,0,0,1,9.14-8.59,43,43,0,0,1,5.34-3.74q1.27-.74,2.61-1.35c.44-.21.89-.41,1.35-.59s1-.66,1.28,0-.77,2.38-1.12,2.92a18.09,18.09,0,0,1-1.67,2.14c-1.52,1.71-3.17,3.32-4.83,4.89A110.12,110.12,0,0,1,324.69,400a1.05,1.05,0,0,0,1.07,1.78c7.11-3,14.32-6,22.12-6.66C349.23,395,348.92,393,347.58,393.07Z" transform="translate(-244.48 -376.54)"></path>
<path fill="#0d0d0e" d="M316.94,398.57A32.86,32.86,0,0,0,304.73,396c-4.09.2-7.51,3-10.51,5.8-10.28,9.54-19.49,20.16-28.68,30.76a197.59,197.59,0,0,0-14.26,17.79,41.89,41.89,0,0,0-5.6,10.7,1.78,1.78,0,0,0,0,1.61,1.73,1.73,0,0,0,1.45.5,24.16,24.16,0,0,0,7-1.33,200,200,0,0,0,70.62-38c2.54-2.12,6.24-4.69,5.25-11.56C327,405.69,323.43,401.83,316.94,398.57Z" transform="translate(-244.48 -376.54)"></path>
<path fill="#28282c" d="M317.34,397.6a30.79,30.79,0,0,0-8.94-2.42,14,14,0,0,0-9.51,1.63c-3.44,2-6.3,5-9.13,7.79q-4.56,4.45-8.9,9.13c-6.13,6.57-12,13.37-17.87,20.16-5.56,6.44-11.26,13-15.45,20.45a35.24,35.24,0,0,0-2.44,5.16c-.46,1.27-1.12,2.87,0,4s2.88.73,4.17.57a37.33,37.33,0,0,0,6.23-1.55A197.66,197.66,0,0,0,279,453.68a201.63,201.63,0,0,0,42.58-25.87c2.42-1.92,5.15-3.82,7.16-6.21a11.37,11.37,0,0,0,2.45-8.32c-.13-1.89-1.2-3.57-2.16-5.17a25.47,25.47,0,0,0-3.11-4.25,29.66,29.66,0,0,0-8.59-6.26c-1.21-.61-2,1.34-.8,1.95,5.27,2.68,10.2,7,12.31,12.67,1,2.6,0,5.91-1.67,8a36.45,36.45,0,0,1-5.44,4.78,198.86,198.86,0,0,1-58.55,32.77c-3.64,1.29-7.32,2.56-11.05,3.55-.88.24-5.21,1.52-5.56.41-.16-.53.69-2,.91-2.56.39-.93.82-1.85,1.29-2.74,3.57-6.86,8.77-12.95,13.77-18.81s10.27-11.93,15.55-17.78c5.86-6.5,11.85-13.12,18.53-18.8,3.14-2.66,6.39-4.35,10.57-3.89a28.92,28.92,0,0,1,9.34,2.4C317.77,400.13,318.55,398.19,317.34,397.6Z" transform="translate(-244.48 -376.54)"></path>
<path fill="#28282c" d="M284.25,421a22.75,22.75,0,0,1,11.69,6.37,20.07,20.07,0,0,1,3.81,5.75c1,2.34,1.11,4.58,1.48,7,.21,1.37,2.46,1.45,2.52,0,.22-5.07-2.68-10.88-6.19-14.4a19.41,19.41,0,0,0-13.17-5.83.55.55,0,0,0-.14,1.09Z" transform="translate(-244.48 -376.54)"></path>
<path fill="#28282c" d="M297.53,415.4c6.18,4.56,9.91,12,11.2,19.43a1.24,1.24,0,0,0,2.45-.35,30,30,0,0,0-4.33-11.3,31.73,31.73,0,0,0-8.59-8.77.62.62,0,0,0-.73,1Z" transform="translate(-244.48 -376.54)"></path>
<path fill="#28282c" d="M291.87,411a3.58,3.58,0,0,0,1,1.37l.56.55a1.69,1.69,0,0,0,1.44.56,1.19,1.19,0,0,0,.92-1.65c-.33-.77-1.09-.94-1.81-1.2a3.76,3.76,0,0,0-1.72-.28.47.47,0,0,0-.36.65Z" transform="translate(-244.48 -376.54)"></path>
<path fill="#28282c" d="M309.29,414.37a41,41,0,0,1,4.54,7.34,22,22,0,0,1,1.4,3.53c.46,1.54.48,3.09.82,4.65a1.09,1.09,0,0,0,2.16,0c.52-2.9-.95-6.25-2.36-8.7-1.6-2.78-3.83-4.92-5.8-7.4a.48.48,0,0,0-.76.6Z" transform="translate(-244.48 -376.54)"></path>
<path fill="#28282c" d="M305.71,410.78a.24.24,0,0,1,0,.12.81.81,0,0,0,0,.35,1.57,1.57,0,0,0,.12.3c.19.36.36.73.79.87a1,1,0,0,0,1.13-.31,1,1,0,0,0,0-1.17,1.47,1.47,0,0,0-1.06-.51l-.29,0a.85.85,0,0,0-.35.05.58.58,0,0,1-.14.05.26.26,0,0,0-.22.29Z" transform="translate(-244.48 -376.54)"></path>
<path fill="#28282c" d="M298.94,407.06a7.94,7.94,0,0,0,1.58,1.42,4.23,4.23,0,0,0,1.81,1.3c.78.16,1.18-.7,1-1.32s-1.14-1.17-1.77-1.54a4.58,4.58,0,0,0-2.07-.82.61.61,0,0,0-.54,1Z" transform="translate(-244.48 -376.54)"></path>
<path fill="#28282c" d="M279,428.66c.32.93,1.6,1.65,2.37,2.21a8.67,8.67,0,0,0,3.19,1.77,1,1,0,0,0,.87-1.54,8.52,8.52,0,0,0-3.17-1.8c-.88-.37-2.17-1.09-3.13-.87a.17.17,0,0,0-.13.23Z" transform="translate(-244.48 -376.54)"></path>
<path fill="#28282c" d="M287.51,434c1.08,1.68,2.38,3.16,3.3,4.95a30,30,0,0,1,1.82,5.36c.39,1.33,2.46.65,2.29-.65-.48-3.78-3.17-8.62-6.53-10.57a.64.64,0,0,0-.88.91Z" transform="translate(-244.48 -376.54)"></path>
<path fill="#28282c" d="M272.64,435.33c1.15.91,2.5,1.5,3.6,2.51s1.72,2.53,3,2.86c.51.13.94-.35,1-.79.31-1.53-1.79-3.15-2.89-3.92a7.28,7.28,0,0,0-4.53-1.62.54.54,0,0,0-.24,1Z" transform="translate(-244.48 -376.54)"></path>
<path fill="#28282c" d="M281.35,443.21a10.73,10.73,0,0,1,1.71,3.18c.37,1,.38,2.21,1.06,3a.93.93,0,0,0,1.57-.22c.51-1.12-.09-2.64-.58-3.7a12.2,12.2,0,0,0-2.5-3.29c-.71-.73-1.95.21-1.26,1Z" transform="translate(-244.48 -376.54)"></path>
<path fill="#28282c" d="M267,439.91a29.08,29.08,0,0,1,6.17,4.93c1.59,1.61,4.47,4.18,4.2,6.63a1.18,1.18,0,1,0,2.35,0c-.13-3-2.49-5.46-4.69-7.31a27.36,27.36,0,0,0-8-4.41c-.12-.05-.18.12-.07.18Z" transform="translate(-244.48 -376.54)"></path>
<path fill="#28282c" d="M264,447.76a14.47,14.47,0,0,1,5,3.36c1.16,1.2,1.84,3.12,3.3,3.91a1,1,0,0,0,1.38-.81c.13-1.93-1.92-3.71-3.28-4.88a16.09,16.09,0,0,0-5.78-3.09c-1-.3-1.59,1.11-.61,1.51Z" transform="translate(-244.48 -376.54)"></path>
<path fill="#28282c" d="M261.11,453.41a9.55,9.55,0,0,0,2.18,2.43,1.19,1.19,0,0,0,1.63-1.68,9.56,9.56,0,0,0-2.49-2.11,1,1,0,0,0-1.32,1.36Z" transform="translate(-244.48 -376.54)"></path>
<path fill="#28282c" d="M256.56,456.19q.12.13.24.3c.06.09.08.15,0,0l.09.19a2.74,2.74,0,0,0,.51.95,1.27,1.27,0,0,0,1.45.36,1.29,1.29,0,0,0,.73-1.3c-.11-1-1.11-1.65-2-1.93a.94.94,0,0,0-1.07.3.92.92,0,0,0,0,1.11Z" transform="translate(-244.48 -376.54)"></path>
<path fill="#28282c" d="M318.83,395.55a10.4,10.4,0,0,0,2.05-3.06c.64-1.11,1.25-2.23,1.81-3.38a.55.55,0,0,0-.94-.53,29.51,29.51,0,0,0-1.9,3.33,9.21,9.21,0,0,0-1.32,3.47.19.19,0,0,0,.3.17Z" transform="translate(-244.48 -376.54)"></path>
<path fill="#28282c" d="M323,398.94a96.48,96.48,0,0,0,8.23-6.62c2.71-2.27,5.41-4.53,8.08-6.84a.79.79,0,0,0-1-1.23q-4.38,3.27-8.53,6.81a70.07,70.07,0,0,0-7.63,7.08c-.46.53.31,1.15.83.8Z" transform="translate(-244.48 -376.54)"></path>
<path fill="#28282c" d="M327.52,403.34a45.2,45.2,0,0,0,11.27-3,.62.62,0,0,0-.5-1.14,94.65,94.65,0,0,1-10.88,3.43c-.48.11-.39.84.11.76Z" transform="translate(-244.48 -376.54)"></path>
</svg>