<svg xmlns="http://www.w3.org/2000/svg" id="Layer_1" data-name="Layer 1" viewBox="0 0 53.98 52.12">
  <path fill="#28282c" d="M328.89,413.9a18.57,18.57,0,0,0-9.42-14.27A88.61,88.61,0,0,0,309,394.75a38,38,0,0,0-10.23-2.87c-6.45-.77-12.8-.09-17.94,4.26-4.37,3.71-6.91,9.51-5.42,15.21,1.68,6.43,7.68,10.65,14.33,9.11l-.93-1.11c-1.45,5.26-3.75,10.59-7.63,14.52A.85.85,0,0,0,281,435a17.62,17.62,0,0,0,8.25,6A40.43,40.43,0,0,0,300,443.63c1.19.08,3.22.3,4.25-.46s.82-2.74.92-3.95a59.5,59.5,0,0,1,2.51-12.82l-1.42.24c3.29,4.89,10,5.83,14.89,2.92,5.27-3.11,8.11-9.7,7.74-15.66-.06-1.07-1.7-.77-1.64.29.32,5.19-2.25,11.12-6.8,13.86-4.31,2.61-10,1.83-12.91-2.47a.84.84,0,0,0-1.42.24,62.3,62.3,0,0,0-2.21,9.71c-.22,1.5-.38,3-.48,4.52-.07,1.1.06,1.65-1.12,1.92a9.2,9.2,0,0,1-2.77-.05,43.11,43.11,0,0,1-9.14-2.23,16.28,16.28,0,0,1-8.09-5.71c0,.39-.08.78-.11,1.17,4.1-4.15,6.6-9.66,8.14-15.23a.84.84,0,0,0-.93-1.1,10.31,10.31,0,0,1-12.4-7.77c-1.4-5.34,1.07-10.62,5.26-14,10.2-8.15,24.05-2.06,34.16,2.87a23.3,23.3,0,0,1,7.66,5.84,15.14,15.14,0,0,1,3.16,8.4C327.36,415.26,329,415,328.89,413.9Z" transform="translate(-274.94 -391.61)"></path>
  <path fill="#28282c" d="M297.86,422.49c-1.49,1.65-2.29,3.88-3.23,5.88-.7,1.48-1.35,3-2,4.5-.86,2-2.11,4.24-2.35,6.43a1.49,1.49,0,0,0,2.68,1c1.31-1.78,1.9-4.24,2.74-6.28.65-1.57,1.34-3.12,2-4.7.83-2.06,1.86-4.27,1.41-6.53a.7.7,0,0,0-1.23-.28Z" transform="translate(-274.94 -391.61)"></path>
  <path fill="#28282c" d="M286,419.19c-.32-2.62-1.2-5.35.9-7.53,1.19-1.23,4.81-2.74,5.41,0,.46,2.08,3.76,1.49,3.26-.59-1.09-4.59-6.62-5.19-9.86-2.44-2.89,2.47-4.77,9.18-.13,11a.32.32,0,0,0,.42-.36Z" transform="translate(-274.94 -391.61)"></path>
  <path fill="#28282c" d="M310.69,429.26c1.61,1.25,4-1.31,4.9-2.46a9.15,9.15,0,0,0,1.71-7.6c-1-3.68-7.32-6.51-9.85-2.77a1.6,1.6,0,0,0,2.31,2.15,3,3,0,0,1,4.47,2.06,7.94,7.94,0,0,1-1.12,4.39,12.52,12.52,0,0,1-1.25,2c-.25.34-.73,1.26-1.09,1.42a.48.48,0,0,0-.08.82Z" transform="translate(-274.94 -391.61)"></path>
  <path fill="#28282c" d="M320.58,416.32c2.56,3.1,2.14,6.95,1.12,10.52a.81.81,0,0,0,1.41.75c2.76-3.58,1-9-1.61-12a.6.6,0,0,0-.92.76Z" transform="translate(-274.94 -391.61)"></path>
  <path fill="#28282c" d="M323.93,416.35c1.18,1.2,1.52,3.21,1.67,4.82.08.81,1.26.67,1.37-.07.3-2.12-.92-3.9-2.33-5.34-.41-.42-1.12.17-.71.59Z" transform="translate(-274.94 -391.61)"></path>
  <path fill="#28282c" d="M286.9,399.33c-6.67-.65-12.73,5.47-10.49,12.23.37,1.11,1.93.44,1.83-.58a9.41,9.41,0,0,1,1.87-7.18,8.71,8.71,0,0,1,6.67-3,.74.74,0,0,0,.12-1.48Z" transform="translate(-274.94 -391.61)"></path>
  <path fill="#28282c" d="M283.31,403.57a10.12,10.12,0,0,0-5.38,5.79c-.88,2.25-1.34,5.29.58,7.15.67.65,2.09,0,1.53-1a6.89,6.89,0,0,1-.35-5.82c.67-2.2,1.66-4.75,3.69-6a.08.08,0,0,0-.07-.14Z" transform="translate(-274.94 -391.61)"></path>
  <path fill="#28282c" d="M319.17,421.6a6.83,6.83,0,0,1-2.49,7.47c-.87.71.19,1.91,1.08,1.31a7.79,7.79,0,0,0,2.58-9.32c-.31-.78-1.42-.22-1.17.54Z" transform="translate(-274.94 -391.61)"></path>
  <path fill="#28282c" d="M289.43,396.35a5.86,5.86,0,0,0-6.82-1.61c-1.2.54-.35,2.21.84,1.81a6.69,6.69,0,0,1,5.29.54c.47.31,1.11-.3.69-.74Z" transform="translate(-274.94 -391.61)"></path>
</svg>