<svg xmlns="http://www.w3.org/2000/svg" id="Layer_1" data-name="Layer 1" viewBox="0 0 72.12 80.45">
  <path fill="#28282c" d="M262.56,424.8a29.45,29.45,0,0,1,13.28-15.32c2.72-1.54,6.31-3.16,7.26-6.42.68-2.34.12-4.95,1.42-7.14s3.65-2.29,5.68-1.18c3,1.64,5,4.64,8.45,5.5,3.78.93,7.83.83,11.66,1.58a33,33,0,0,1,10.39,3.69c13.59,7.9,15.6,26.19,7.67,38.82a33.72,33.72,0,0,1-7.71,8.49,63.16,63.16,0,0,1-9.7,6.5,9.91,9.91,0,0,1-5.14,1.22c-2.08-.1-4.08-.72-6.18-.68s-4,.45-6.06.64a42.32,42.32,0,0,1-7.12.06c-8.49-.68-16.35-3.73-21.18-11a28.22,28.22,0,0,1-2.72-24.72c.45-1.26,2.47-.72,2,.56A26.37,26.37,0,0,0,266,446.62c3.54,6.53,9.51,10.08,16.71,11.36a41.25,41.25,0,0,0,12.2.28,37.37,37.37,0,0,1,5.38-.5c1.87,0,3.68.58,5.54.69,3.63.2,6.93-2.62,9.79-4.55a40.1,40.1,0,0,0,8.63-7.43c9.15-11,9.57-29-2.69-37.92-5.8-4.21-13.07-5.1-20-5.78a14.51,14.51,0,0,1-8.06-2.86c-1.38-1.07-4.88-5.1-6.8-3.41s-1,5.41-1.72,7.56c-1,2.72-3.37,4.5-5.76,5.91-3,1.79-6,3.38-8.48,5.87a26.85,26.85,0,0,0-6.16,9.52C264.11,426.61,262.08,426.07,262.56,424.8Z" transform="translate(-260.9 -380.23)"></path>
  <path fill="#28282c" d="M313,454.94c9.41-6.66,16.1-18.74,12.95-30.38a24.28,24.28,0,0,0-9.12-13.38c-5.49-3.92-11.91-3.71-18.24-5.12-5.4-1.2-11.73-4.85-12-11a1.25,1.25,0,0,1,2.45-.33c1.59,6.72,8.52,8.38,14.47,9.31,6.29,1,12,2.34,16.8,6.74a27.34,27.34,0,0,1,6.32,30.93,30.05,30.05,0,0,1-13,14.26.58.58,0,0,1-.59-1Z" transform="translate(-260.9 -380.23)"></path>
  <path fill="#28282c" d="M287.69,395.18c2.61,7.19,9.42,11.1,16.15,13.83,6.31,2.55,12.66,5.38,16.76,11.08,4.87,6.77,5.18,15.79,1.89,23.29-3.15,7.17-9.12,12.64-15.46,17-1.27.87-2.43-1.18-1.2-2.06,8.87-6.36,18-16.09,16.32-27.91a20.12,20.12,0,0,0-3.8-9.29c-4.39-5.74-11.24-8.23-17.59-11.09s-12.69-7.45-14.13-14.58a.55.55,0,0,1,1.06-.29Z" transform="translate(-260.9 -380.23)"></path>
  <path fill="#28282c" d="M302.6,459c-2.89-1.17-4.56-3.87-5.75-6.63a76.25,76.25,0,0,1-3.51-11,84.5,84.5,0,0,1-3.07-25.65c.12-2.23-.21-7.43,3.13-7.53,1.5-.05,2.53,1.22,3.45,2.23,1.29,1.41,2.53,2.86,3.7,4.37a59.77,59.77,0,0,1,10,19.58c2.21,7.54,3.91,17-.27,24.14a1.1,1.1,0,0,1-1.9-1.1c3.3-5.73,2.21-13,.79-19.09a58.39,58.39,0,0,0-12.92-25.23c-.45-.5-.9-1-1.37-1.47s-1.29-1.43-1.8-.43a7.76,7.76,0,0,0-.34,2.54c-.09,1-.16,2-.2,3a84.63,84.63,0,0,0,2.16,21.86c.83,3.76,1.78,7.53,2.95,11.19a18.24,18.24,0,0,0,5.32,8.64c.24.22,0,.69-.33.57Z" transform="translate(-260.9 -380.23)"></path>
  <path fill="#28282c" d="M307.35,458.76l-.23.25a.59.59,0,0,1-.58.16c-1.14-.43-1.45-1.32-1.91-2.41-.64-1.5-1.21-3-1.76-4.54-1.19-3.34-2.26-6.73-3.24-10.13s-1.88-6.83-2.66-10.29c-.74-3.28-1.73-6.74-1.86-10.11a1.15,1.15,0,0,1,2.24-.3c.88,2.93,1.18,6.12,1.8,9.12s1.38,6.28,2.17,9.39,1.59,6,2.5,9c.45,1.48.91,3,1.39,4.43.32,1,.82,4.51,2,4.83a.39.39,0,0,1,.17.64Z" transform="translate(-260.9 -380.23)"></path>
  <path fill="#28282c" d="M295.14,417.65a2.42,2.42,0,0,0-.22-.72,2.09,2.09,0,0,1-.25-1.12,1,1,0,0,1,2-.27,2,2,0,0,1,.06,1.15,2.36,2.36,0,0,0,0,.75c.1.87-1.4,1.08-1.53.21Z" transform="translate(-260.9 -380.23)"></path>
  <path fill="#28282c" d="M290.73,401.25c1.86,2.13,3.41,4.41,5.48,6.38s4.32,3.81,6.5,5.68c4.52,3.85,8.56,8.09,11.21,13.46a36.77,36.77,0,0,1,3.87,17.42,14.87,14.87,0,0,1-2.43,8.43,20.13,20.13,0,0,1-6.44,5.33,1,1,0,0,1-1-1.67c2.47-1.8,5.18-3.29,6.61-6.13s1.39-5.94,1.22-8.9a36.06,36.06,0,0,0-5.24-16.54c-2.88-4.74-6.93-8.36-11-12.08-3.28-3-7.7-6.83-9-11.29a.09.09,0,0,1,.16-.09Z" transform="translate(-260.9 -380.23)"></path>
  <path fill="#28282c" d="M301.64,458.62c-4.8-.95-9.45-4.47-12.57-8.11a20.23,20.23,0,0,1-5.22-13.07c0-6.62,2.76-12.93,3.14-19.54.41-7.06-.7-14-1.43-21-.1-.95,1.5-1.18,1.67-.23A93.55,93.55,0,0,1,289,415.88a49.43,49.43,0,0,1-1.09,8.91c-.65,3-1.58,5.95-2,9a19,19,0,0,0,4.13,15.1c3.32,4,7.66,6.22,12,8.89a.47.47,0,0,1-.36.85Z" transform="translate(-260.9 -380.23)"></path>
  <path fill="#28282c" d="M299.08,459c-8.34-1.59-17.6-5.06-21.4-13.28-4.3-9.31-1-19.43,2.32-28.46,2.19-5.91,4.59-11.9,5.16-18.24.11-1.13,1.88-1.16,1.81,0-.82,12.79-9.22,23.81-9.29,36.68,0,5.9,1.83,11.65,6.48,15.52,4.35,3.62,9.93,5.07,15.12,7a.39.39,0,0,1-.2.76Z" transform="translate(-260.9 -380.23)"></path>
  <path fill="#28282c" d="M297,458.58c-9.25.34-20.84-1.6-25.55-10.67-2.16-4.15-2.53-8.94-2.31-13.53.25-5.06.85-10.37,2.8-15.08a26,26,0,0,1,4.56-7c2.2-2.56,4.32-5.5,6.85-7.72.81-.71,2.24.21,1.58,1.21-1.77,2.64-4.21,4.89-6.29,7.3a26.22,26.22,0,0,0-5.26,8.45,46.52,46.52,0,0,0-2.24,17.54c.36,6,2.77,11.34,8.11,14.45,5.49,3.2,11.76,3.28,17.87,4.19.49.08.34.82-.12.84Z" transform="translate(-260.9 -380.23)"></path>
  <path fill="#28282c" d="M298.25,418.2a73.34,73.34,0,0,1,5.93,11,54.18,54.18,0,0,1,3.68,12.31c.17,1-1.32,1.51-1.61.45-2.21-8-4.76-16-9-23.12-.4-.66.62-1.25,1-.6Z" transform="translate(-260.9 -380.23)"></path>
  <path fill="#28282c" d="M308,444a29.86,29.86,0,0,1,.13,10c-.13.78-1.4.59-1.37-.19a50.42,50.42,0,0,0-.34-9.35c-.15-1,1.4-1.49,1.58-.44Z" transform="translate(-260.9 -380.23)"></path>
  <path fill="#28282c" d="M282.08,380.49a31.13,31.13,0,0,1,5.05,8c1.15,2.71,2.32,6,2.14,8.94a1,1,0,0,1-2,.28c-.67-2.75-.87-5.47-1.85-8.17a28.6,28.6,0,0,0-4.38-7.93c-.59-.76.43-1.84,1.08-1.08Z" transform="translate(-260.9 -380.23)"></path>
  <path fill="#28282c" d="M277.37,381.24c5.49,3.4,9.55,9.72,11.54,15.77.49,1.48-1.92,2.55-2.56,1.08a57.69,57.69,0,0,0-4.31-8.43c-1.7-2.63-3.68-5.06-5.49-7.6-.36-.49.33-1.12.82-.82Z" transform="translate(-260.9 -380.23)"></path>
  <path fill="#28282c" d="M276,387.19c2.48.34,4.55,2.18,6.35,3.82a36.53,36.53,0,0,1,5.39,6.06c1.1,1.58-1.44,3-2.55,1.49a64.51,64.51,0,0,0-4.84-6c-1.55-1.66-3.46-3.18-4.46-5.25a.1.1,0,0,1,.11-.14Z" transform="translate(-260.9 -380.23)"></path>
  <path fill="#28282c" d="M287.93,382.57c1.58,1.6,1.7,4.59,1.84,6.7a21,21,0,0,1-.82,8.15,1,1,0,0,1-2-.56,52.29,52.29,0,0,0,.94-7.59c0-2.11-.76-4.58-.23-6.62a.18.18,0,0,1,.29-.08Z" transform="translate(-260.9 -380.23)"></path>
</svg>