<svg xmlns="http://www.w3.org/2000/svg" id="Layer_1" data-name="Layer 1" viewBox="0 0 69.59 86.35">
  <path fill="#28282c" d="M289.29,392.37c3.62-.18,7.38-1,10.95.06a5.2,5.2,0,0,1,3.66,3.31c.42,1.6-.25,3.21-.35,4.81-.11,1.8,2.59,2.77,3.25.86,1.51-4.4.5-9.38-4.05-11.4-4.08-1.81-10-1-13.85,1a.74.74,0,0,0,.39,1.4Z" transform="translate(-262.61 -377.68)"></path>
  <path fill="#28282c" d="M305.85,397.5a20.4,20.4,0,0,0,3.47-.29,20.18,20.18,0,0,1,4.59.3,7.87,7.87,0,0,1,3.83,1.57c1,.93.68,2.32,1.57,3.22a1.59,1.59,0,0,0,2.46,0c1.46-1.49-.08-4.18-1.29-5.33a9.83,9.83,0,0,0-5.13-2.33,14.74,14.74,0,0,0-5.88.11c-1.28.29-3.4.84-3.93,2.23a.4.4,0,0,0,.31.53Z" transform="translate(-262.61 -377.68)"></path>
  <path fill="#28282c" d="M321.88,378.57c-4.58-3.4-10.92,3.8-13.6,6.82a29.56,29.56,0,0,0-7.51,14.84c-.61,4,5.44,4.68,6.18.78a24.71,24.71,0,0,1,5.86-11.41,51.84,51.84,0,0,1,4.5-4.64c1.53-1.4,3.49-2.43,4.9-3.92a1.78,1.78,0,0,0-.33-2.47Z" transform="translate(-262.61 -377.68)"></path>
  <path fill="#28282c" d="M303,401.93c-2.37-6.16-9.53-8.8-15.58-6.41-6.37,2.52-8.57,9.2-8.92,15.51-.32,5.69-.27,11.42-.52,17.12s-.62,11.69-.32,17.52c.33,6.46,2.38,13.5,8.38,16.89,5.76,3.27,12.36.65,16.88-3.52,4.34-4,7-9.18,9.1-14.64a127.92,127.92,0,0,0,5.19-18c1.46-6.64,3.82-14.76.65-21.21a10.6,10.6,0,0,0-7.14-6,8.39,8.39,0,0,0-8.52,3.06c-1.37,1.92,1.51,4.14,2.91,2.23a5,5,0,0,1,6-1.53c2.49,1.06,4,3.71,4.58,6.26,1.16,5.25-.52,11.14-1.64,16.3a129.58,129.58,0,0,1-4.11,15c-1.56,4.48-3.4,9-6.31,12.83-3.07,4-8,8.31-13.48,7.21-5.9-1.19-8.35-7.65-8.93-12.94-1.08-9.69.25-19.67.43-29.38.11-5.6-.58-12.3,3.21-16.93a9.83,9.83,0,0,1,8.45-3.45,11.93,11.93,0,0,1,8,5c.64.89,2,0,1.62-.95Z" transform="translate(-262.61 -377.68)"></path>
  <path fill="#28282c" d="M293,395.19c-1.58-6-8.78-7.81-14.08-5.81-6.46,2.42-10.29,9.39-12.48,15.54a70.39,70.39,0,0,0-3.72,19.81,60.47,60.47,0,0,0,1.77,19.92c2.17,7.54,7.86,16.23,17,14.33,2.14-.44,1.59-3.88-.49-3.34-7.14,1.88-11.38-5.85-13.18-11.47a50.81,50.81,0,0,1-1.95-16.41,74.08,74.08,0,0,1,2.37-17.52c1.39-5.24,3.53-10.65,7.32-14.64,2.2-2.32,5.13-4.08,8.41-4a8.65,8.65,0,0,1,7.44,4.05c.43.76,1.91.56,1.64-.47Z" transform="translate(-262.61 -377.68)"></path>
  <path fill="#28282c" d="M315.33,404.69A7.32,7.32,0,0,1,322,403a8.82,8.82,0,0,1,5.72,5.06c2.51,5.3.82,11.39-.7,16.73-2.66,9.34-5.7,19.33-11.13,27.48-1.6,2.41-3.54,5-6.11,6.44-2.8,1.58-5.44,1.07-7.76-1-1.2-1-3.25.5-2.48,1.93,1.49,2.79,4.79,3.76,7.81,3.48,3.26-.3,6-2.31,8.16-4.62,4.1-4.33,6.73-9.91,9-15.37a146.14,146.14,0,0,0,5.93-17.91c1.7-6.44,3.21-13.63-.49-19.7-3.31-5.43-11.53-7.86-15.75-2-.52.73.47,1.84,1.17,1.16Z" transform="translate(-262.61 -377.68)"></path>
  <path fill="#28282c" d="M270.09,428.43A26.46,26.46,0,0,0,268.6,437a36.58,36.58,0,0,0,.54,8.55c.85,4.68,2.47,10.57,6.87,13.16a.88.88,0,0,0,1.07-1.39c-3.89-3.36-5.41-8-6.38-12.94a47.11,47.11,0,0,1-.85-7.4c-.11-2.88.36-5.68.43-8.54,0-.1-.15-.16-.19-.05Z" transform="translate(-262.61 -377.68)"></path>
  <path fill="#28282c" d="M272.45,437.52a16.37,16.37,0,0,0,.28,12.17c1.45,3.68,4.43,8.51,8.89,8.51,1.66,0,2.07-2.53.33-2.63-3.77-.22-6.33-4.62-7.58-7.76a27.84,27.84,0,0,1-1.73-10.27c0-.1-.16-.11-.19,0Z" transform="translate(-262.61 -377.68)"></path>
  <path fill="#28282c" d="M286.46,416.67a96.94,96.94,0,0,0-3.22,24.15,72.19,72.19,0,0,0,.51,11.48c.47,3.33,1.52,8.32,5.06,9.74,1.07.42,2.41-1,1.47-1.93a11.21,11.21,0,0,1-3.19-4.57,28.08,28.08,0,0,1-1.09-5.07,78.18,78.18,0,0,1-.7-11.24,121.52,121.52,0,0,1,1.87-22.37c.07-.41-.6-.59-.71-.19Z" transform="translate(-262.61 -377.68)"></path>
  <path fill="#28282c" d="M288,414.14a17.76,17.76,0,0,1,2.94-6.88,1,1,0,0,0-1.58-1.21,11.66,11.66,0,0,0-2.43,8.1c0,.63,1,.57,1.07,0Z" transform="translate(-262.61 -377.68)"></path>
  <path fill="#28282c" d="M293.17,403.26a4.9,4.9,0,0,1,1.55.73c.5.39.71,1,1.19,1.39a1.29,1.29,0,0,0,2-1.19c-.35-1.81-2.88-3-4.57-2.55-.73.18-1.08,1.34-.21,1.62Z" transform="translate(-262.61 -377.68)"></path>
  <path fill="#28282c" d="M297.26,410.85a113.07,113.07,0,0,0-7.72,25.44c-.83,4.39-1.51,8.8-2,13.24-.37,3.66-1.42,9.08.85,12.28a1.3,1.3,0,0,0,2.29-1,22.51,22.51,0,0,1-.8-6.34c.07-1.87.21-3.73.39-5.59.4-4.31,1-8.59,1.77-12.85,1.48-8.31,3.07-16.89,6.2-24.77a.56.56,0,0,0-1-.43Z" transform="translate(-262.61 -377.68)"></path>
  <path fill="#28282c" d="M308.25,406.87c1.69.79,2.54,3.1,2.59,4.84a1.29,1.29,0,1,0,2.55-.37c-.06-3-2-4.81-4.51-6-1-.45-1.58,1.07-.63,1.52Z" transform="translate(-262.61 -377.68)"></path>
  <path fill="#28282c" d="M310.92,415.58c-.51,6-.77,12.05-1.62,18.06a109.63,109.63,0,0,1-3.92,18c-.37,1.14,1.3,1.87,1.74.72a79.29,79.29,0,0,0,4.21-18.2c.81-6,1.66-12.58.48-18.59-.09-.48-.85-.52-.89,0Z" transform="translate(-262.61 -377.68)"></path>
  <path fill="#28282c" d="M323.44,411.2c-.44,2-.23,4.26-.44,6.34s-.56,4.26-1,6.37a67.8,67.8,0,0,1-4.27,13.63,60,60,0,0,1-6.94,12.22,48,48,0,0,1-4.11,4.78c-1.44,1.48-3.34,2.62-4.66,4.19-.86,1,.38,2.21,1.46,1.88,2-.61,3.87-2.52,5.34-3.95a38.44,38.44,0,0,0,4.36-5.08,58,58,0,0,0,7-13,67,67,0,0,0,3.89-14.4,47.82,47.82,0,0,0,.52-6.87c0-2,.12-4.29-.67-6.18a.29.29,0,0,0-.54.08Z" transform="translate(-262.61 -377.68)"></path>
  <path fill="#28282c" d="M271.38,417.72a29.77,29.77,0,0,1,8.79-18.6c.68-.71-.44-1.71-1.17-1.17-6,4.37-9.28,12.49-8.47,19.78a.43.43,0,0,0,.85,0Z" transform="translate(-262.61 -377.68)"></path>
  <path fill="#28282c" d="M273,434.81a57.65,57.65,0,0,1,1.54-5.62c.25-.88-1.05-1.45-1.33-.55a15.11,15.11,0,0,0-.4,6.17c0,.11.18.1.19,0Z" transform="translate(-262.61 -377.68)"></path>
  <path fill="#28282c" d="M294.24,452.25a27.6,27.6,0,0,1-2.29,5c-.94,1.47-2.25,2.61-3.25,4a1.06,1.06,0,0,0,1.49,1.47c3-2,4.62-6.93,4.24-10.44a.1.1,0,0,0-.19,0Z" transform="translate(-262.61 -377.68)"></path>
</svg>