<svg xmlns="http://www.w3.org/2000/svg" id="Layer_1" data-name="Layer 1" viewBox="0 0 69.99 68.95">
  <path fill="#0d0d0e" d="M330.78,439.84a27.45,27.45,0,0,0,2.57-7.71,22.16,22.16,0,0,0-6.16-18.57c-4.73-4.83-13.16-7.14-19.92-7.07a23.32,23.32,0,0,0-19.81-8.85A23.85,23.85,0,0,0,269,409.09a24.42,24.42,0,0,0-1.39,21.72,32.74,32.74,0,0,0,7.19,10.12,45.54,45.54,0,0,0,18.84,11.44,38.94,38.94,0,0,0,21.95.29,24.3,24.3,0,0,0,10.07-5.44A25.31,25.31,0,0,0,330.78,439.84Z" transform="translate(-264.63 -386.2)"></path>
  <path fill="#28282c" d="M331.72,440.32a25.28,25.28,0,0,0,2.81-13.42,23.57,23.57,0,0,0-4.44-11.53c-5.22-7.08-14.36-9.94-22.88-9.93l.94.48a24.41,24.41,0,0,0-25.4-8.52,24.84,24.84,0,0,0-17.64,19c-4.11,21.08,19,37.58,37.83,38.7a36.84,36.84,0,0,0,16.51-2.68c5.67-2.44,9.54-6.6,12.27-12.08a1.05,1.05,0,0,0-1.88-.95,22.83,22.83,0,0,1-6.53,8.45,25.14,25.14,0,0,1-8.34,3.92,37.5,37.5,0,0,1-18.38.33,43.07,43.07,0,0,1-17.81-8.92c-4.91-4.07-9.4-9.2-11.18-15.45a23,23,0,0,1,14.79-28A22.06,22.06,0,0,1,300,401.57a21.11,21.11,0,0,1,3.67,2.62c.5.43,1,.88,1.43,1.36s1,1.44,1.58,1.79c.89.53,2.51.22,3.52.31a33.48,33.48,0,0,1,4.34.68c6.63,1.47,12.36,4.92,15.58,11.05,3.41,6.5,2.82,13.5-.28,20C329.26,440.58,331.13,441.54,331.72,440.32Z" transform="translate(-264.63 -386.2)"></path>
  <path fill="#28282c" d="M288.86,401.46c-2.64-.85-5.7.53-8,1.83s-5.39,3.42-6.18,6.07c-.45,1.52,1.43,2.42,2.6,1.77a11.58,11.58,0,0,0,2.39-2.25,18.4,18.4,0,0,1,2.7-2.2c1.67-1.12,4.26-2.86,6.31-3,1.36-.07,1.32-1.86.16-2.24Z" transform="translate(-264.63 -386.2)"></path>
  <path fill="#28282c" d="M273,413.68c-.16.39-.29.77-.48,1.14a4.61,4.61,0,0,0-.48,1.28,1.17,1.17,0,1,0,2.3.46,11.82,11.82,0,0,0,0-1.19,2.34,2.34,0,0,1,.19-.9.91.91,0,0,0-.38-1.18.88.88,0,0,0-1.18.39Z" transform="translate(-264.63 -386.2)"></path>
  <path fill="#28282c" d="M315.28,442.35a30.55,30.55,0,0,1-3.72,6.34,17.1,17.1,0,0,1-2,2.19c-.88.8-1.95,1.29-2.79,2.12s.2,2.19,1.28,2c2.1-.42,4-2.74,5.12-4.44,1.56-2.36,2.25-5,3.28-7.57.32-.79-.85-1.41-1.2-.61Z" transform="translate(-264.63 -386.2)"></path>
  <path fill="#28282c" d="M322.6,434.71a43,43,0,0,1-3.36,9.2c-1.47,2.87-3.56,5.14-5.32,7.8-.69,1,.88,2.46,1.85,1.66,2.58-2.12,4.5-5.59,5.86-8.61a28.21,28.21,0,0,0,2.41-9.95c.06-.85-1.26-.87-1.44-.1Z" transform="translate(-264.63 -386.2)"></path>
  <path fill="#28282c" d="M326.35,438.35a27.15,27.15,0,0,1-4.83,10.4,1.08,1.08,0,1,0,1.76,1.22,29.34,29.34,0,0,0,4.41-11.35.68.68,0,0,0-1.34-.27Z" transform="translate(-264.63 -386.2)"></path>
  <path fill="#28282c" d="M320.64,415.43c1.61,3.37,1.77,7.11,2.06,10.74.12,1.45,2.52,1.77,2.66.19.41-4.3-1.3-8.14-3.56-11.67-.5-.77-1.53,0-1.16.74Z" transform="translate(-264.63 -386.2)"></path>
  <path fill="#28282c" d="M323.23,430.63a1.14,1.14,0,0,0,1-2,1.14,1.14,0,0,0-1,2Z" transform="translate(-264.63 -386.2)"></path>
  <path fill="#28282c" d="M327.71,430.5a10.65,10.65,0,0,0-.56,2.56,1,1,0,0,0,1.82.38,4.35,4.35,0,0,0,.28-1.38c0-.41,0-.84,0-1.25.17-1-1.41-1.34-1.58-.31Z" transform="translate(-264.63 -386.2)"></path>
  <path fill="#28282c" d="M306.07,448.76a17.31,17.31,0,0,0-2.81,2.06c-1.07.72-2.34,1-3.42,1.73a1.17,1.17,0,0,0,.7,2.13c2.3-.3,5.76-3,6-5.46,0-.28-.22-.59-.52-.46Z" transform="translate(-264.63 -386.2)"></path>
  <path fill="#0d0d0e" d="M323.18,403.27c-3,.58-4.35,0-7.34.57a13.3,13.3,0,0,0,1.93-10.28,25,25,0,0,0-6.44,6.38c-.07-3.94-.18-8-2-11.52-.34-.64-.93-1.34-1.64-1.19s-.9.75-1.12,1.32c-1,2.6-2.05,5.2-3.07,7.81a26.91,26.91,0,0,0-2.74-8.52c-4.44,4.09-7.5,10.84-5.33,16.47,5,13.1,16.63,10.25,17.49,10.05A16.27,16.27,0,0,0,323.18,403.27Z" transform="translate(-264.63 -386.2)"></path>
  <path fill="#28282c" d="M323.12,402.22c-2.44.42-4.9.15-7.34.58l1,1.52a15.55,15.55,0,0,0,2-10.82,1.07,1.07,0,0,0-1.62-.82,27.58,27.58,0,0,0-6.65,6.55l1.82.64a41.58,41.58,0,0,0-.57-7.31c-.35-1.84-.94-4.53-2.47-5.8s-2.9-.39-3.62,1.1c-1.24,2.56-2.12,5.37-3.17,8l2,.42a30,30,0,0,0-2.91-9,1.06,1.06,0,0,0-1.66-.13,19.71,19.71,0,0,0-6.16,11.18c-.66,4.62,1.28,9.18,4.34,12.6,3.7,4.13,10.53,6.3,15.85,4.15a17.54,17.54,0,0,0,10.22-11.59c.36-1.3-1.7-1.72-2.06-.42-1.28,4.58-5.07,9.22-9.88,10.37a13.58,13.58,0,0,1-7.7-.56,14.5,14.5,0,0,1-8.77-11.36c-.54-4.91,2.27-9.7,5.72-13l-1.66-.14a26.62,26.62,0,0,1,2.57,8c.14.91,1.57,1.48,2,.41q1-2.55,2-5.11a14.32,14.32,0,0,1,1.07-2.7c.69-1,1.06.15,1.41,1,1.28,3.15,1.32,6.64,1.38,10,0,.84,1.29,1.39,1.82.64a26.06,26.06,0,0,1,6.24-6.2l-1.62-.82a13.72,13.72,0,0,1-1.82,9.75,1.05,1.05,0,0,0,1,1.52c2.44-.42,4.91-.15,7.34-.58C324.56,404.08,324.45,402,323.12,402.22Z" transform="translate(-264.63 -386.2)"></path>
  <path fill="#28282c" d="M302.51,398.08a16.66,16.66,0,0,0-.18,5.72c.1.63,1.12.83,1.2.09a51.88,51.88,0,0,0,.3-5.71.67.67,0,0,0-1.32-.1Z" transform="translate(-264.63 -386.2)"></path>
  <path fill="#28282c" d="M309.42,401.57c-.89,1.5-1.86,3-2.67,4.52-.34.67.51,1.12,1,.7a9.5,9.5,0,0,0,2.83-4.82c.18-.7-.82-1-1.16-.4Z" transform="translate(-264.63 -386.2)"></path>
  <path fill="#28282c" d="M313.75,405a25.61,25.61,0,0,1-5,3.49c-1.81.93-3.81,1.33-5.63,2.19a.88.88,0,0,0,.32,1.71c4.33.24,8.81-3.33,11.13-6.66a.54.54,0,0,0-.8-.73Z" transform="translate(-264.63 -386.2)"></path>
  <path fill="#28282c" d="M301.84,405.77c0,.55-.09,1.1-.1,1.65a.89.89,0,1,0,1.74-.33c-.15-.47-.32-.93-.51-1.39a.6.6,0,0,0-.59-.4.58.58,0,0,0-.54.47Z" transform="translate(-264.63 -386.2)"></path>
</svg>