<svg width="38" height="38" viewBox="0 0 38 38" fill="none" xmlns="http://www.w3.org/2000/svg">
<g clip-path="url(#clip0_3_88)">
<path d="M28.4698 0H9.5C4.28254 0 0 4.28254 0 9.53016V28.5C0 33.7175 4.28254 38 9.5 38H28.4698C33.7175 38 38 33.7175 38 28.4698V9.53016C38 4.28254 33.7175 0 28.4698 0ZM24.0968 19H20.5079V30.7619H15.9841V19H13.5714V14.1746H15.6825V12.1238C15.6825 10.1937 16.6476 7.14762 20.719 7.14762H24.4286V11.1587H21.8048C21.3825 11.1587 20.8095 11.4302 20.8095 12.3651V14.1746H24.519L24.0968 19Z" fill="#d7d9df"/>
</g>
<defs>
<clipPath id="clip0_3_88">
<rect width="38" height="38" fill="white"/>
</clipPath>
</defs>
</svg>
