<svg width="38" height="38" viewBox="0 0 38 38" fill="none" xmlns="http://www.w3.org/2000/svg">
<g clip-path="url(#clip0_5_108)">
<path fill-rule="evenodd" clip-rule="evenodd" d="M18.994 0.0123672C13.8355 0.0123672 13.1887 0.0342323 11.1628 0.126669C9.1411 0.218879 7.76037 0.539995 6.55221 1.00957C5.30318 1.4949 4.24393 2.14437 3.18793 3.20029C2.13199 4.2563 1.48253 5.31555 0.997197 6.56458C0.527627 7.77274 0.206513 9.15348 0.114302 11.1752C0.021865 13.2011 0 13.8479 0 19.0065C0 24.1648 0.021865 24.8116 0.114302 26.8377C0.206513 28.8593 0.527627 30.2401 0.997197 31.4482C1.48253 32.6973 2.13199 33.7565 3.18793 34.8124C4.24393 35.8684 5.30318 36.5178 6.55221 37.0033C7.76037 37.4727 9.1411 37.7938 11.1628 37.8862C13.1887 37.9785 13.8355 38.0003 18.994 38.0003C24.1525 38.0003 24.7993 37.9785 26.8251 37.8862C28.8469 37.7938 30.2276 37.4727 31.4358 37.0033C32.6847 36.5178 33.744 35.8684 34.8001 34.8124C35.856 33.7565 36.5055 32.6973 36.9909 31.4482C37.4604 30.2401 37.7815 28.8593 37.8736 26.8377C37.9661 24.8116 37.988 24.1648 37.988 19.0065C37.988 13.8479 37.9661 13.2011 37.8736 11.1752C37.7815 9.15348 37.4604 7.77274 36.9909 6.56458C36.5055 5.31555 35.856 4.2563 34.8001 3.20029C33.744 2.14437 32.6847 1.4949 31.4358 1.00957C30.2276 0.539995 28.8469 0.218879 26.8251 0.126669C24.7993 0.0342323 24.1525 0.0123672 18.994 0.0123672ZM12.6627 19.0065C12.6627 22.5031 15.4973 25.3378 18.994 25.3378C22.4908 25.3378 25.3254 22.5031 25.3254 19.0065C25.3254 15.5096 22.4908 12.675 18.994 12.675C15.4973 12.675 12.6627 15.5096 12.6627 19.0065ZM9.24033 19.0065C9.24033 13.6195 13.6072 9.2527 18.994 9.2527C24.3808 9.2527 28.7476 13.6195 28.7476 19.0065C28.7476 24.3931 24.3808 28.76 18.994 28.76C13.6072 28.76 9.24033 24.3931 9.24033 19.0065ZM29.133 11.1466C30.3919 11.1466 31.4124 10.1262 31.4124 8.86734C31.4124 7.60852 30.3919 6.58803 29.133 6.58803C27.8743 6.58803 26.8538 7.60852 26.8538 8.86734C26.8538 10.1262 27.8743 11.1466 29.133 11.1466Z" fill="#d7d9df"/>
</g>
<defs>
<clipPath id="clip0_5_108">
<rect width="38" height="38" fill="white"/>
</clipPath>
</defs>
</svg>
