<svg width="38" height="38" viewBox="0 0 38 38" fill="none" xmlns="http://www.w3.org/2000/svg">
<g clip-path="url(#clip0_5_112)">
<path d="M34.2 0H3.8C1.71 0 0 1.71 0 3.8V34.2C0 36.29 1.71 38 3.8 38H34.2C36.29 38 38 36.29 38 34.2V3.8C38 1.71 36.29 0 34.2 0ZM29.64 12.92C29.64 13.11 29.64 13.3 29.64 13.68C29.64 20.9 24.13 29.26 14.06 29.26C11.02 29.26 8.17 28.31 5.7 26.79C6.08 26.79 6.65 26.79 7.03 26.79C9.5 26.79 11.97 25.84 13.87 24.51C11.4 24.51 9.5 22.8 8.74 20.71C9.12 20.71 9.5 20.9 9.69 20.9C10.26 20.9 10.64 20.9 11.21 20.71C8.74 20.14 6.84 18.05 6.84 15.39C7.6 15.77 8.36 15.96 9.31 16.15C7.79 14.82 6.84 13.3 6.84 11.4C6.84 10.45 7.03 9.5 7.6 8.74C10.26 11.97 14.25 14.25 18.81 14.44C18.81 14.06 18.62 13.68 18.62 13.11C18.62 10.07 21.09 7.6 24.13 7.6C25.65 7.6 27.17 8.17 28.12 9.31C29.45 9.12 30.59 8.55 31.54 7.98C31.16 9.31 30.21 10.26 29.07 11.02C30.21 10.83 31.16 10.64 32.3 10.07C31.54 11.21 30.59 12.16 29.64 12.92Z" fill="#D7D9DF"/>
</g>
<defs>
<clipPath id="clip0_5_112">
<rect width="38" height="38" fill="white"/>
</clipPath>
</defs>
</svg>
