<svg width="38" height="38" viewBox="0 0 38 38" fill="none" xmlns="http://www.w3.org/2000/svg">
<g clip-path="url(#clip0_3_96)">
<mask id="mask0_3_96" style="mask-type:luminance" maskUnits="userSpaceOnUse" x="0" y="0" width="38" height="38">
<path d="M38 0H0V38H38V0Z" fill="white"/>
</mask>
<g mask="url(#mask0_3_96)">
<path d="M18.1698 8.4796C17.9866 8.48713 17.8035 8.49773 17.6205 8.51347C17.3562 8.53613 17.0929 8.56767 16.8309 8.60667L17.5455 11.9522C17.9729 11.8307 18.4106 11.7427 18.8551 11.6877L18.1698 8.4796ZM21.4243 8.75107C21.0631 9.7044 20.8803 10.6745 20.9064 11.6485C21.3542 11.6842 21.8034 11.7477 22.2512 11.8383C22.1868 10.9336 22.3481 10.0252 22.7234 9.09373C22.3033 8.95867 21.8687 8.84413 21.4243 8.75107ZM13.5072 9.62613C13.0536 9.85087 12.6166 10.1115 12.2001 10.4078C13.5026 11.0655 14.4043 12.0972 14.7766 13.3464C15.1429 13.0614 15.5295 12.8133 15.9317 12.5995C15.4773 11.3929 14.6271 10.3666 13.5072 9.62613ZM20.0485 12.9508C19.9627 12.9507 19.8773 12.9519 19.792 12.9543C19.5935 12.9599 19.3965 12.9723 19.2018 12.9915C16.0851 13.3015 13.4639 15.2373 12.7095 19.6765C12.5464 20.6368 13.0281 22.8546 13.6184 24.6981C14.2086 26.5414 14.8529 28.0763 14.8529 28.0763L14.8903 28.1652L14.9009 28.2613C15.0464 29.575 14.2248 30.8565 13.3266 32.14C12.7302 32.9925 12.1072 33.7805 11.5476 34.4942C13.3289 34.394 14.9589 33.6047 16.5334 32.1973C16.5242 32.1603 16.5208 32.1447 16.5102 32.1011C16.4459 31.8343 16.3651 31.4556 16.3849 31.0116C16.4181 30.2707 16.8061 29.3819 17.7816 28.6464C15.9575 26.0472 15.6369 22.8011 15.9959 20.1092L16.0617 19.6157L16.5535 19.5377C20.9112 18.8482 23.7709 17.3995 26.8951 15.4859C24.8491 13.862 22.3532 12.954 20.0485 12.9508ZM28.9694 15.7593C25.3755 18.0242 22.1739 19.891 17.2758 20.7579C17.0344 23.2374 17.4559 26.0897 19.1481 28.239C20.0837 28.2843 20.8747 28.7568 21.3675 29.4401C21.8683 30.1343 22.1057 31.0107 22.1713 31.936C23.8997 33.5262 26.8448 34.8323 29.4272 36.1408C29.1919 33.2133 29.4052 30.475 28.3482 27.6717L23.6841 25.794L23.6795 25.792C22.6173 25.3453 21.9479 24.7683 21.7119 24.0085C21.4759 23.2488 21.647 22.5267 21.8001 21.703L21.9633 20.8233L22.7604 21.2297C24.4977 22.1159 26.5748 22.7527 28.5159 22.7189L29.0045 22.7103L29.1605 23.1733C29.9467 25.5065 30.1189 27.375 30.3296 29.2743L30.9076 29.5054C31.2138 27.3248 31.0495 24.4076 30.6209 21.7551C30.2155 19.2452 29.5285 16.9288 28.9694 15.7593ZM16.5802 32.3927C16.5795 32.4257 16.5872 32.4265 16.581 32.3957L16.5802 32.3927Z" fill="#F4F5FB"/>
<path d="M18.8303 1.5109C18.1779 1.51647 17.5352 1.57176 16.9087 1.6822C13.4538 2.29139 10.2718 3.62354 7.91158 5.5464C5.55118 7.46927 4.00973 9.95426 3.73186 12.9722L3.73156 12.9752L3.73126 12.9781C3.10412 19.204 6.65526 24.2869 8.60032 26.4528C8.98698 26.8835 9.12458 27.4602 9.08518 28.0011C9.04585 28.5421 8.85958 29.0769 8.59552 29.6219C8.06752 30.7121 7.20738 31.8529 6.29248 32.9215C5.25661 34.1315 4.26074 35.126 3.49072 35.8625C4.02532 35.7724 4.58648 35.5382 5.17326 35.1673C6.2613 34.4796 7.36672 33.3507 8.29765 32.1021C9.22858 30.8535 9.99038 29.4837 10.4353 28.3477C10.6578 27.7797 10.7998 27.2686 10.852 26.8841C10.9039 26.4999 10.8389 26.2615 10.8257 26.2394C9.68718 24.3297 8.50585 22.378 7.80592 20.3678C7.10605 18.3576 6.90045 16.2439 7.80052 14.1817C9.67252 9.8926 13.5911 7.8668 17.5063 7.53133C21.4109 7.19673 25.3707 8.45133 27.6405 10.8496L29.3692 12.5176L34.5091 9.43973C32.9995 7.4868 30.3907 5.33324 27.3663 3.78007C24.8766 2.50157 22.1189 1.62935 19.4857 1.52174C19.2663 1.51283 19.0477 1.50897 18.8303 1.5109ZM27.6405 10.8496L27.6362 10.8453L27.6592 10.8685C27.653 10.8621 27.6464 10.856 27.6405 10.8496Z" fill="#F4F5FB"/>
</g>
</g>
<defs>
<clipPath id="clip0_3_96">
<rect width="38" height="38" fill="white"/>
</clipPath>
</defs>
</svg>
