<svg width="38" height="38" viewBox="0 0 38 38" fill="none" xmlns="http://www.w3.org/2000/svg">
<g clip-path="url(#clip0_5_103)">
<path fill-rule="evenodd" clip-rule="evenodd" d="M15.178 23.9136V13.2512C18.9632 15.0323 21.8948 16.7529 25.3621 18.6079C22.5024 20.1939 18.9632 21.9733 15.178 23.9136ZM36.2729 7.94824C35.62 7.08799 34.5071 6.41837 33.3224 6.19667C29.84 5.53538 8.11487 5.5335 4.63439 6.19667C3.68431 6.37478 2.83829 6.80529 2.11153 7.47416C-0.950689 10.3164 0.00886574 25.5582 0.74698 28.0272C1.05736 29.0959 1.45861 29.8666 1.96394 30.3725C2.61499 31.0414 3.50639 31.5019 4.53028 31.7084C7.39756 32.3015 22.1693 32.6331 33.2618 31.7975C34.2838 31.6194 35.1884 31.144 35.9019 30.4467C38.7333 27.6159 38.5402 11.5181 36.2729 7.94824Z" fill="#d7d9df"/>
</g>
<defs>
<clipPath id="clip0_5_103">
<rect width="38" height="38" fill="white"/>
</clipPath>
</defs>
</svg>
