<svg width="83" height="45" viewBox="0 0 83 45" fill="none" xmlns="http://www.w3.org/2000/svg">
<g clip-path="url(#clip0_211_698)">
<path d="M62.4193 1.57289C61.7401 1.57869 61.0712 1.63625 60.4189 1.75122C56.8223 2.3854 53.5098 3.7722 51.0526 5.77394C48.5954 7.77569 46.9907 10.3626 46.7015 13.5044L46.7012 13.5075L46.7009 13.5106C46.048 19.9918 49.7448 25.2832 51.7696 27.538C52.1722 27.9864 52.3154 28.5868 52.2744 29.1499C52.2335 29.713 52.0395 30.2697 51.7646 30.8371C51.215 31.972 50.3196 33.1597 49.3671 34.2721C48.2888 35.5317 47.252 36.567 46.4504 37.3338C47.007 37.24 47.5912 36.9961 48.202 36.61C49.3347 35.8941 50.4854 34.7189 51.4546 33.4191C52.4237 32.1193 53.2167 30.6933 53.6799 29.5107C53.9115 28.9193 54.0594 28.3873 54.1137 27.9871C54.1678 27.587 54.1 27.3388 54.0863 27.3159C52.9011 25.3279 51.6713 23.2961 50.9427 21.2034C50.2141 19.1107 50.0001 16.9102 50.9371 14.7635C52.8859 10.2984 56.9652 8.18951 61.041 7.84028C65.1058 7.49197 69.228 8.79804 71.5909 11.2947L73.3905 13.0312L78.7413 9.82703C77.1698 7.79392 74.454 5.55204 71.3055 3.93515C68.7136 2.60421 65.8428 1.69621 63.1017 1.58417C62.8732 1.5749 62.6456 1.57088 62.4193 1.57289ZM71.5909 11.2947L71.5864 11.2902L71.6104 11.3144C71.604 11.3077 71.5971 11.3014 71.5909 11.2947Z" fill="#FF3100"/>
<path d="M61.7315 8.82751C61.5408 8.8354 61.3502 8.84644 61.1597 8.86282C60.8845 8.88639 60.6104 8.91923 60.3376 8.95979L61.0815 12.4426C61.5266 12.3161 61.9822 12.2245 62.4449 12.1672L61.7315 8.82751ZM65.1195 9.11015C64.7435 10.1026 64.5531 11.1125 64.5803 12.1265C65.0466 12.1636 65.5141 12.2297 65.9804 12.3241C65.9133 11.3822 66.0813 10.4365 66.4719 9.46687C66.0346 9.32625 65.5822 9.20703 65.1195 9.11015ZM56.8776 10.0211C56.4054 10.255 55.9505 10.5264 55.5169 10.8348C56.8728 11.5195 57.8116 12.5936 58.1991 13.894C58.5804 13.5973 58.9829 13.339 59.4016 13.1165C58.9286 11.8604 58.0435 10.7919 56.8776 10.0211ZM63.6873 13.4822C63.598 13.482 63.509 13.4833 63.4202 13.4858C63.2136 13.4917 63.0086 13.5045 62.8058 13.5246C59.5613 13.8472 56.8326 15.8624 56.0472 20.4837C55.8774 21.4835 56.3789 23.7923 56.9934 25.7114C57.6078 27.6303 58.2786 29.2282 58.2786 29.2282L58.3175 29.3207L58.3286 29.4208C58.48 30.7884 57.6247 32.1225 56.6897 33.4586C56.0688 34.346 55.4202 35.1664 54.8376 35.9094C56.692 35.8051 58.3889 34.9834 60.028 33.5183C60.0184 33.4797 60.0148 33.4635 60.0038 33.4181C59.9369 33.1404 59.8527 32.7461 59.8735 32.2839C59.9079 31.5125 60.3118 30.5873 61.3274 29.8216C59.4285 27.1159 59.0946 23.7366 59.4684 20.9342L59.5369 20.4204L60.0488 20.3393C64.5854 19.6215 67.5624 18.1134 70.8147 16.1213C68.6849 14.4307 66.0865 13.4855 63.6873 13.4822ZM72.9742 16.4058C69.2328 18.7637 65.8999 20.7071 60.8008 21.6095C60.5495 24.1907 60.9884 27.1601 62.7499 29.3975C63.724 29.4447 64.5474 29.9366 65.0604 30.648C65.5817 31.3706 65.8288 32.283 65.8971 33.2462C67.6965 34.9016 70.7624 36.2613 73.4507 37.6236C73.2058 34.576 73.4279 31.7253 72.3275 28.807L67.4721 26.8522L67.4673 26.8502C66.3614 26.3852 65.6646 25.7845 65.4189 24.9935C65.1732 24.2026 65.3514 23.4509 65.5107 22.5934L65.6807 21.6777L66.5105 22.1008C68.319 23.0233 70.4813 23.6862 72.5021 23.6511L73.0106 23.6421L73.1731 24.1241C73.9916 26.5529 74.1708 28.4981 74.3902 30.4754L74.9918 30.7159C75.3106 28.4459 75.1396 25.409 74.6934 22.6476C74.2713 20.0348 73.5561 17.6233 72.9742 16.4058ZM60.0767 33.7217C60.076 33.756 60.084 33.7568 60.0775 33.7248L60.0767 33.7217Z" fill="#F4F5FB"/>
</g>
<g clip-path="url(#clip1_211_698)">
<path d="M0.0323499 31.9789C0.0769229 31.9789 0.640163 31.7497 1.35738 31.4425C2.30962 31.0328 3.33075 30.7548 4.3073 30.6378C7.318 30.2818 10.8271 30.9231 16.4433 32.8592C18.599 33.6053 21.3018 34.6343 26.5614 36.7143C29.333 37.8091 29.4302 37.8457 30.0745 38.0506C31.5819 38.5236 32.8907 38.765 34.3211 38.8308C36.027 38.9113 37.8464 38.6431 39.447 38.0774C42.3442 37.0508 44.9416 35.1196 47.308 32.2349C48.1752 31.1791 48.8519 30.2086 49.6866 28.8334C50.0432 28.2481 50.0391 28.2481 50.027 28.2481C50.0189 28.2481 49.9176 28.3506 49.8001 28.4725C49.6826 28.5968 49.4597 28.8187 49.3017 28.9675C46.291 31.796 42.5347 33.2274 38.8716 32.9421C38.0085 32.8738 37.3926 32.7665 35.715 32.391C34.2076 32.0545 32.7084 31.6522 30.5932 31.0157C29.3168 30.6329 29.1425 30.5793 26.3588 29.6819C25.443 29.3869 24.5515 29.0992 24.3732 29.0406C21.091 27.9872 18.6112 27.3728 16.4879 27.0875C16.0421 27.0265 15.9044 27.0192 15.256 27.0192C14.4578 27.0192 13.9877 27.0582 13.1368 27.1972C10.5516 27.6215 7.17618 28.6944 3.54551 30.2476C1.70586 31.0328 -0.210775 31.9789 0.0323499 31.9789Z" fill="#F4F5FB"/>
<path d="M16.2082 25.3635C16.3743 25.3172 16.7269 25.2172 16.9903 25.1392C17.5575 24.9758 17.8615 24.9319 18.445 24.9319C19.9442 24.9319 22.5214 25.4562 25.994 26.4681C26.4154 26.5925 26.9989 26.7607 27.2907 26.8461C27.5784 26.929 28.9561 27.3484 30.35 27.7775C36.0107 29.5186 37.4249 29.8794 38.8958 29.9575C40.618 30.0477 42.5508 29.6697 44.2811 28.9016C44.8402 28.6529 45.4683 28.292 45.4075 28.253C45.3954 28.2481 45.1968 28.3335 44.9699 28.4432C44.7389 28.5554 44.4593 28.6724 44.3418 28.7041C43.1384 29.0382 40.9381 28.7114 37.7653 27.7312C36.5983 27.3703 35.5569 27.0143 33.6241 26.3169C30.5647 25.2148 29.2843 24.81 27.4527 24.3662C26.4276 24.1199 24.7135 23.7907 23.9193 23.6908C23.4614 23.6347 22.7807 23.6103 22.3755 23.6396C21.3057 23.7151 20.5804 23.8956 18.0722 24.7125C16.1028 25.3513 15.5356 25.5488 16.2082 25.3635Z" fill="#F4F5FB"/>
</g>
<defs>
<clipPath id="clip0_211_698">
<rect width="39.5589" height="39.5589" fill="white" transform="translate(42.8164)"/>
</clipPath>
<clipPath id="clip1_211_698">
<rect width="31.2116" height="50.0838" fill="white" transform="translate(0 45) rotate(-90)"/>
</clipPath>
</defs>
</svg>
