<svg width="57" height="57" viewBox="0 0 57 57" fill="none" xmlns="http://www.w3.org/2000/svg">
<g clip-path="url(#clip0_301_4)">
<path d="M27.2547 12.7194C26.9799 12.7307 26.7053 12.7466 26.4308 12.7702C26.0343 12.8042 25.6393 12.8515 25.2463 12.91L26.3182 17.9283C26.9594 17.746 27.6159 17.614 28.2827 17.5315L27.2547 12.7194ZM32.1364 13.1266C31.5947 14.5566 31.3204 16.0118 31.3596 17.4728C32.0313 17.5263 32.7051 17.6215 33.3768 17.7575C33.2802 16.4004 33.5222 15.0378 34.0851 13.6406C33.455 13.438 32.8031 13.2662 32.1364 13.1266ZM20.2608 14.4392C19.5804 14.7763 18.9249 15.1672 18.3001 15.6117C20.2539 16.5983 21.6065 18.1458 22.1649 20.0196C22.7144 19.5921 23.2943 19.2199 23.8976 18.8993C23.216 17.0894 21.9406 15.5499 20.2608 14.4392ZM30.0728 19.4262C29.9441 19.426 29.8159 19.4278 29.688 19.4314C29.3902 19.4399 29.0948 19.4584 28.8027 19.4873C24.1277 19.9522 20.1959 22.8559 19.0643 29.5147C18.8196 30.9552 19.5422 34.2819 20.4276 37.0471C21.3129 39.8121 22.2794 42.1144 22.2794 42.1144L22.3355 42.2478L22.3514 42.392C22.5696 44.3625 21.3372 46.2848 19.9899 48.21C19.0953 49.4887 18.1608 50.6708 17.3214 51.7413C19.9933 51.591 22.4384 50.4071 24.8001 48.296C24.7863 48.2404 24.7812 48.217 24.7653 48.1517C24.6688 47.7515 24.5476 47.1834 24.5774 46.5174C24.6271 45.406 25.2091 44.0728 26.6724 42.9696C23.9363 39.0708 23.4553 34.2017 23.9939 30.1638L24.0925 29.4235L24.8302 29.3066C31.3668 28.2723 35.6564 26.0992 40.3426 23.2288C37.2737 20.793 33.5298 19.431 30.0728 19.4262ZM43.4541 23.6389C38.0632 27.0363 33.2609 29.8365 25.9137 31.1368C25.5516 34.8561 26.1839 39.1346 28.7221 42.3585C30.1256 42.4264 31.312 43.1352 32.0512 44.1602C32.8024 45.2015 33.1585 46.5161 33.2569 47.904C35.8495 50.2893 40.2672 52.2484 44.1408 54.2112C43.7879 49.82 44.1078 45.7125 42.5223 41.5076L35.5262 38.691L35.5193 38.688C33.9259 38.018 32.9218 37.1525 32.5678 36.0128C32.2138 34.8732 32.4705 33.79 32.7001 32.5545L32.945 31.235L34.1406 31.8446C36.7465 33.1739 39.8622 34.1291 42.7739 34.0784L43.5067 34.0655L43.7408 34.76C44.9201 38.2597 45.1783 41.0625 45.4944 43.9115L46.3614 44.2581C46.8207 40.9872 46.5742 36.6114 45.9314 32.6326C45.3232 28.8678 44.2927 25.3932 43.4541 23.6389ZM24.8703 48.5891C24.8692 48.6385 24.8808 48.6397 24.8715 48.5935L24.8703 48.5891Z" fill="#F4F5FB"/>
<path d="M28.2455 2.26635C27.2669 2.2747 26.303 2.35764 25.3632 2.5233C20.1809 3.43708 15.4079 5.43531 11.8675 8.3196C8.3269 11.2039 6.01472 14.9314 5.59791 19.4583L5.59747 19.4628L5.59702 19.4672C4.6563 28.806 9.98301 36.4303 12.9006 39.6792C13.4806 40.3253 13.687 41.1903 13.6279 42.0017C13.5689 42.8131 13.2895 43.6153 12.8934 44.4329C12.1014 46.0681 10.8112 47.7794 9.43884 49.3822C7.88504 51.1972 6.39124 52.689 5.23621 53.7938C6.0381 53.6586 6.87985 53.3073 7.76001 52.7509C9.39208 51.7194 11.0502 50.0261 12.4466 48.1532C13.843 46.2803 14.9857 44.2256 15.6531 42.5216C15.9868 41.6695 16.1999 40.9029 16.2781 40.3262C16.356 39.7498 16.2584 39.3922 16.2387 39.3591C14.5309 36.4946 12.7589 33.567 11.709 30.5517C10.6592 27.5364 10.3508 24.3658 11.7009 21.2725C14.5089 14.8389 20.3867 11.8002 26.2595 11.297C32.1165 10.7951 38.0562 12.677 41.4608 16.2744L44.0539 18.7764L51.7638 14.1596C49.4994 11.2302 45.5862 7.99986 41.0496 5.6701C37.315 3.75236 33.1784 2.44403 29.2287 2.28261C28.8996 2.26925 28.5717 2.26346 28.2455 2.26635ZM41.4608 16.2744L41.4544 16.268L41.4889 16.3028C41.4796 16.2931 41.4697 16.284 41.4608 16.2744Z" fill="#ffffff"/>
</g>
<defs>
<clipPath id="clip0_301_4">
<rect width="57" height="57" fill="white"/>
</clipPath>
</defs>
</svg>
