<svg width="109" height="120" viewBox="0 0 109 120" fill="none" xmlns="http://www.w3.org/2000/svg">
<path d="M108.333 87C108.333 89.28 107.069 91.26 105.144 92.28L57.5972 118.92C56.6343 119.64 55.4306 120 54.1667 120C52.9028 120 51.6991 119.64 50.7361 118.92L3.18981 92.28C1.26389 91.26 0 89.28 0 87V33C0 30.72 1.26389 28.74 3.18981 27.72L50.7361 1.08C51.6991 0.36 52.9028 0 54.1667 0C55.4306 0 56.6343 0.36 57.5972 1.08L105.144 27.72C107.069 28.74 108.333 30.72 108.333 33V87Z" fill="#303039"/>
<g clip-path="url(#clip0_615_97)">
<path d="M49.75 41.25C51.2952 41.25 52.8056 41.7082 54.0904 42.5666C55.3752 43.4251 56.3765 44.6452 56.9678 46.0728C57.5591 47.5003 57.7138 49.0712 57.4124 50.5866C57.1109 52.1021 56.3669 53.4942 55.2743 54.5868C54.1817 55.6794 52.7896 56.4234 51.2741 56.7249C49.7587 57.0263 48.1878 56.8716 46.7603 56.2803C45.3327 55.689 44.1126 54.6877 43.2541 53.4029C42.3957 52.1181 41.9375 50.6077 41.9375 49.0625C41.9375 46.9905 42.7606 45.0034 44.2257 43.5382C45.6909 42.0731 47.678 41.25 49.75 41.25ZM49.75 38.125C47.5868 38.125 45.4721 38.7665 43.6735 39.9683C41.8748 41.1701 40.4729 42.8783 39.6451 44.8769C38.8172 46.8755 38.6006 49.0746 39.0227 51.1963C39.4447 53.318 40.4864 55.2668 42.016 56.7965C43.5457 58.3261 45.4945 59.3678 47.6162 59.7898C49.7379 60.2119 51.937 59.9953 53.9356 59.1674C55.9342 58.3396 57.6424 56.9377 58.8442 55.139C60.046 53.3404 60.6875 51.2257 60.6875 49.0625C60.6875 46.1617 59.5352 43.3797 57.484 41.3285C55.4328 39.2773 52.6508 38.125 49.75 38.125Z" fill="white"/>
<path d="M65.375 81.875H62.25V74.0625C62.25 71.9905 61.4269 70.0034 59.9618 68.5382C58.4966 67.0731 56.5095 66.25 54.4375 66.25H45.0625C42.9905 66.25 41.0034 67.0731 39.5382 68.5382C38.0731 70.0034 37.25 71.9905 37.25 74.0625V81.875H34.125V74.0625C34.125 71.1617 35.2773 68.3797 37.3285 66.3285C39.3797 64.2773 42.1617 63.125 45.0625 63.125H54.4375C57.3383 63.125 60.1203 64.2773 62.1715 66.3285C64.2227 68.3797 65.375 71.1617 65.375 74.0625V81.875Z" fill="white"/>
<path d="M81 41.25H65.375V44.375H81V41.25Z" fill="white"/>
<path d="M81 49.0625H65.375V52.1875H81V49.0625Z" fill="white"/>
<path d="M76.3125 56.875H65.375V60H76.3125V56.875Z" fill="white"/>
</g>
<defs>
<clipPath id="clip0_615_97">
<rect width="50" height="50" fill="white" transform="translate(31 35)"/>
</clipPath>
</defs>
</svg>
