<svg width="109" height="120" viewBox="0 0 109 120" fill="none" xmlns="http://www.w3.org/2000/svg">
<path d="M108.333 87C108.333 89.28 107.069 91.26 105.144 92.28L57.5972 118.92C56.6343 119.64 55.4306 120 54.1667 120C52.9028 120 51.6991 119.64 50.7361 118.92L3.18981 92.28C1.26389 91.26 0 89.28 0 87V33C0 30.72 1.26389 28.74 3.18981 27.72L50.7361 1.08C51.6991 0.36 52.9028 0 54.1667 0C55.4306 0 56.6343 0.36 57.5972 1.08L105.144 27.72C107.069 28.74 108.333 30.72 108.333 33V87Z" fill="#303039"/>
<g clip-path="url(#clip0_505_92)">
<path d="M54 37.6111C41.26 37.6111 30.8889 46.6822 30.8889 57.8333C30.8889 68.9844 41.26 78.0555 54 78.0555C56.3836 78.0528 58.7554 77.7223 61.0489 77.0733L69.0367 82.1578C69.2548 82.2977 69.5064 82.3763 69.7654 82.3855C70.0243 82.3948 70.2809 82.3341 70.5084 82.2101C70.7358 82.086 70.9257 81.9031 71.0582 81.6804C71.1906 81.4577 71.2607 81.2035 71.2611 80.9444V71.2233C73.0685 69.4895 74.5107 67.4117 75.503 65.1121C76.4953 62.8125 77.0175 60.3377 77.0389 57.8333C77.1111 46.6822 66.74 37.6111 54 37.6111ZM68.8634 69.5478C68.7181 69.6824 68.6022 69.8455 68.5227 70.0269C68.4431 70.2083 68.4018 70.4041 68.4011 70.6022V78.3155L62.0745 74.2855C61.898 74.174 61.6994 74.102 61.4925 74.0746C61.2855 74.0471 61.075 74.0649 60.8756 74.1266C58.6493 74.8181 56.3312 75.1687 54 75.1666C42.8489 75.1666 33.7778 67.3955 33.7778 57.8333C33.7778 48.2711 42.8489 40.5 54 40.5C65.1511 40.5 74.2222 48.2711 74.2222 57.8333C74.1893 60.0506 73.696 62.2369 72.7735 64.2535C71.851 66.2701 70.5194 68.073 68.8634 69.5478Z" fill="white"/>
<path d="M64.1111 56.3889H43.8889C43.5058 56.3889 43.1384 56.5411 42.8675 56.812C42.5966 57.0829 42.4445 57.4503 42.4445 57.8334C42.4445 58.2165 42.5966 58.5839 42.8675 58.8547C43.1384 59.1256 43.5058 59.2778 43.8889 59.2778H64.1111C64.4942 59.2778 64.8616 59.1256 65.1325 58.8547C65.4034 58.5839 65.5556 58.2165 65.5556 57.8334C65.5556 57.4503 65.4034 57.0829 65.1325 56.812C64.8616 56.5411 64.4942 56.3889 64.1111 56.3889Z" fill="white"/>
<path d="M59.4167 63.6111H48.5834C48.2003 63.6111 47.8329 63.7633 47.562 64.0342C47.2911 64.305 47.1389 64.6724 47.1389 65.0555C47.1389 65.4386 47.2911 65.806 47.562 66.0769C47.8329 66.3478 48.2003 66.5 48.5834 66.5H59.4167C59.7998 66.5 60.1672 66.3478 60.4381 66.0769C60.709 65.806 60.8611 65.4386 60.8611 65.0555C60.8611 64.6724 60.709 64.305 60.4381 64.0342C60.1672 63.7633 59.7998 63.6111 59.4167 63.6111Z" fill="white"/>
<path d="M44.2933 52.0555H63.7067C64.0897 52.0555 64.4571 51.9033 64.728 51.6324C64.9989 51.3616 65.1511 50.9942 65.1511 50.6111C65.1511 50.228 64.9989 49.8606 64.728 49.5897C64.4571 49.3188 64.0897 49.1666 63.7067 49.1666H44.2933C43.9102 49.1666 43.5428 49.3188 43.2719 49.5897C43.0011 49.8606 42.8489 50.228 42.8489 50.6111C42.8489 50.9942 43.0011 51.3616 43.2719 51.6324C43.5428 51.9033 43.9102 52.0555 44.2933 52.0555Z" fill="white"/>
</g>
<defs>
<clipPath id="clip0_505_92">
<rect width="52" height="52" fill="white" transform="translate(28 34)"/>
</clipPath>
</defs>
</svg>
