<svg width="109" height="120" viewBox="0 0 109 120" fill="none" xmlns="http://www.w3.org/2000/svg">
<path d="M108.333 87C108.333 89.28 107.069 91.26 105.144 92.28L57.5972 118.92C56.6343 119.64 55.4306 120 54.1667 120C52.9028 120 51.6991 119.64 50.7361 118.92L3.18981 92.28C1.26389 91.26 0 89.28 0 87V33C0 30.72 1.26389 28.74 3.18981 27.72L50.7361 1.08C51.6991 0.36 52.9028 0 54.1667 0C55.4306 0 56.6343 0.36 57.5972 1.08L105.144 27.72C107.069 28.74 108.333 30.72 108.333 33V87Z" fill="#303039"/>
<path d="M45.6625 59.4902C42.3886 59.4902 39.7152 62.1523 39.7152 65.4375C39.7152 68.7227 42.3773 71.3848 45.6625 71.3848C48.9363 71.3848 51.6097 68.7227 51.6097 65.4375C51.6097 62.1523 48.9363 59.4902 45.6625 59.4902ZM45.6625 68.598C43.9179 68.598 42.4906 67.182 42.4906 65.4262C42.4906 63.6703 43.9066 62.2543 45.6625 62.2543C47.407 62.2543 48.8344 63.6703 48.8344 65.4262C48.8344 67.182 47.407 68.598 45.6625 68.598Z" fill="white"/>
<path d="M68.2848 65.4261C68.2848 62.1523 65.6227 59.4789 62.3375 59.4789C59.0637 59.4789 56.3903 62.141 56.3903 65.4261C56.3903 68.7113 59.0524 71.3734 62.3375 71.3734C65.6227 71.3734 68.2848 68.7 68.2848 65.4261ZM62.3375 68.598C60.593 68.598 59.1656 67.182 59.1656 65.4261C59.1656 63.6703 60.5817 62.2543 62.3375 62.2543C64.0821 62.2543 65.5094 63.6703 65.5094 65.4261C65.5094 67.182 64.0934 68.598 62.3375 68.598Z" fill="white"/>
<path d="M77.993 50.6656C77.0414 45.0015 72.3629 40.8101 66.5969 40.459L66.359 40.4136C66.2797 40.4023 66.2004 40.391 66.1211 40.391H42.1621C36.1242 40.391 31.0152 44.707 30.0184 50.6316L26.3594 70.2406C26.2461 70.773 26.1895 71.3054 26.1895 71.8379C26.1895 76.1199 29.6672 79.5976 33.9492 79.5976C36.532 79.5976 38.9449 78.3176 40.3609 76.2105L42.1281 73.7636C42.5812 73.1406 42.434 72.2797 41.8109 71.8265C41.1879 71.3734 40.327 71.5207 39.8738 72.1437L38.084 74.6246C37.1551 76.0066 35.6031 76.8336 33.9492 76.8336C31.1965 76.8336 28.9648 74.5906 28.9648 71.8492C28.9648 71.5094 28.9988 71.1582 29.0781 70.7844L32.7371 51.1301C33.5074 46.5195 37.4723 43.1777 42.1508 43.1777H66.0078L66.2004 43.2117C66.257 43.223 66.3023 43.223 66.359 43.2344C70.777 43.4722 74.5152 46.8027 75.2516 51.1527L78.9219 70.807C78.9898 71.1469 79.0238 71.498 79.0238 71.8379C79.0238 74.5906 76.7809 76.8222 74.0394 76.8222C72.3742 76.8222 70.8336 75.9953 69.8707 74.5793L67.9676 71.9511C67.5145 71.3281 66.6535 71.1922 66.0305 71.634C65.4074 72.0871 65.2715 72.948 65.7133 73.5711L67.5824 76.1652C69.0324 78.3062 71.434 79.5863 74.0168 79.5863C78.2988 79.5863 81.7766 76.1086 81.7766 71.8265C81.7766 71.2941 81.7199 70.7504 81.618 70.2519L77.993 50.6656Z" fill="white"/>
<path d="M61.1933 53.4749C62.2319 53.4749 63.0738 52.633 63.0738 51.5945C63.0738 50.5559 62.2319 49.714 61.1933 49.714C60.1548 49.714 59.3129 50.5559 59.3129 51.5945C59.3129 52.633 60.1548 53.4749 61.1933 53.4749Z" fill="white"/>
<path d="M68.8852 53.4749C69.9237 53.4749 70.7656 52.633 70.7656 51.5945C70.7656 50.5559 69.9237 49.714 68.8852 49.714C67.8466 49.714 67.0047 50.5559 67.0047 51.5945C67.0047 52.633 67.8466 53.4749 68.8852 53.4749Z" fill="white"/>
<path d="M43.091 46.0211C42.3207 46.0211 41.6977 46.6442 41.6977 47.4145V49.918H39.1941C38.4238 49.918 37.8008 50.541 37.8008 51.3114C37.8008 52.0817 38.4238 52.7047 39.1941 52.7047H41.6977V55.2082C41.6977 55.9785 42.3207 56.6016 43.091 56.6016C43.8613 56.6016 44.4844 55.9785 44.4844 55.2082V52.7047H46.9879C47.7582 52.7047 48.3812 52.0817 48.3812 51.3114C48.3812 50.541 47.7582 49.918 46.9879 49.918H44.4844V47.4145C44.4844 46.6442 43.8613 46.0211 43.091 46.0211Z" fill="white"/>
<path d="M65.0336 57.3153C66.0722 57.3153 66.9141 56.4733 66.9141 55.4348C66.9141 54.3962 66.0722 53.5543 65.0336 53.5543C63.9951 53.5543 63.1531 54.3962 63.1531 55.4348C63.1531 56.4733 63.9951 57.3153 65.0336 57.3153Z" fill="white"/>
<path d="M65.0336 49.6234C66.0722 49.6234 66.9141 48.7815 66.9141 47.7429C66.9141 46.7043 66.0722 45.8624 65.0336 45.8624C63.9951 45.8624 63.1531 46.7043 63.1531 47.7429C63.1531 48.7815 63.9951 49.6234 65.0336 49.6234Z" fill="white"/>
</svg>
