<svg width="120" height="120" viewBox="0 0 120 120" fill="none" xmlns="http://www.w3.org/2000/svg">
<path d="M115.333 87C115.333 89.28 114.069 91.26 112.144 92.28L64.5972 118.92C63.6343 119.64 62.4306 120 61.1667 120C59.9028 120 58.6991 119.64 57.7361 118.92L10.1898 92.28C8.26389 91.26 7 89.28 7 87V33C7 30.72 8.26389 28.74 10.1898 27.72L57.7361 1.08C58.6991 0.36 59.9028 0 61.1667 0C62.4306 0 63.6343 0.36 64.5972 1.08L112.144 27.72C114.069 28.74 115.333 30.72 115.333 33V87Z" fill="#303039"/>
<g clip-path="url(#clip0_401_16)">
<path d="M78.9547 62.1068C78.065 62.1068 77.3442 62.8279 77.3442 63.7173V80.0601H44.6578V63.7173C44.6578 62.8279 43.937 62.1068 43.0474 62.1068C42.1577 62.1068 41.4369 62.8279 41.4369 63.7173V81.6706C41.4369 82.56 42.1577 83.2811 43.0474 83.2811H78.9547C79.8443 83.2811 80.5651 82.56 80.5651 81.6706V63.7173C80.5651 62.8279 79.8441 62.1068 78.9547 62.1068Z" fill="white"/>
<path d="M87.5282 62.5786L62.1371 37.1905C61.5083 36.5616 60.4886 36.5618 59.8596 37.1905L34.4717 62.5786C33.8428 63.2076 33.8428 64.2273 34.4717 64.8561C34.7863 65.1704 35.1986 65.3278 35.6106 65.3278C36.0229 65.3278 36.435 65.1706 36.7496 64.8561L60.9988 40.6066L85.251 64.8561C85.8797 65.485 86.8995 65.4848 87.5286 64.8558C88.1571 64.2271 88.1571 63.2074 87.5282 62.5786Z" fill="white"/>
</g>
<defs>
<clipPath id="clip0_401_16">
<rect width="54" height="54" fill="white" transform="translate(34 33)"/>
</clipPath>
</defs>
</svg>
