<svg width="120" height="120" viewBox="0 0 120 120" fill="none" xmlns="http://www.w3.org/2000/svg">
<path d="M115.333 87C115.333 89.28 114.069 91.26 112.144 92.28L64.5972 118.92C63.6343 119.64 62.4306 120 61.1667 120C59.9028 120 58.6991 119.64 57.7361 118.92L10.1898 92.28C8.26389 91.26 7 89.28 7 87V33C7 30.72 8.26389 28.74 10.1898 27.72L57.7361 1.08C58.6991 0.36 59.9028 0 61.1667 0C62.4306 0 63.6343 0.36 64.5972 1.08L112.144 27.72C114.069 28.74 115.333 30.72 115.333 33V87Z" fill="#303039"/>
<g clip-path="url(#clip0_401_64)">
<path d="M72.4285 36.21L72.8063 36.216C79.4559 36.4214 84.7839 41.8734 84.79 48.5716V71.4285L84.784 71.8063C84.5785 78.4559 79.1265 83.7839 72.4283 83.79H49.5714L49.1936 83.784C42.5441 83.5785 37.216 78.1265 37.21 71.4283V48.5714L37.216 48.1936C37.4214 41.5441 42.8734 36.216 49.5716 36.21H72.4285ZM72.4285 39.2185H49.5714L49.2285 39.2247C44.2219 39.4051 40.2185 43.5207 40.2185 48.5714V71.4285L40.2247 71.7714C40.4051 76.778 44.5207 80.7814 49.5714 80.7814H72.4285L72.7714 80.7752C77.778 80.5948 81.7814 76.4792 81.7814 71.4285V48.5714L81.7752 48.2285C81.5948 43.2219 77.4792 39.2185 72.4285 39.2185ZM60.9998 46.4957L61.3978 46.5018C68.6691 46.7187 74.4975 52.6778 74.5042 60.0002C74.5042 67.4582 68.4582 73.5042 61 73.5042C53.5417 73.5042 47.4957 67.4582 47.4957 60C47.4957 52.6749 53.3277 46.7121 60.6018 46.5014L60.9998 46.4957ZM61 49.5042C55.2033 49.5042 50.5042 54.2033 50.5042 60C50.5042 65.7966 55.2033 70.4957 61 70.4957C66.7966 70.4957 71.4957 65.7966 71.4957 60C71.4957 54.2033 66.7966 49.5042 61 49.5042ZM74.1428 43.6385C75.2892 43.6385 76.2185 44.5679 76.2185 45.7142C76.2185 46.8606 75.2892 47.79 74.1428 47.79C72.9964 47.79 72.0671 46.8606 72.0671 45.7142C72.0671 44.5679 72.9964 43.6385 74.1428 43.6385Z" fill="white"/>
</g>
<defs>
<clipPath id="clip0_401_64">
<rect width="48" height="48" fill="white" transform="translate(37 36)"/>
</clipPath>
</defs>
</svg>
