<svg width="120" height="120" viewBox="0 0 120 120" fill="none" xmlns="http://www.w3.org/2000/svg">
<path d="M115 87C115 89.28 113.736 91.26 111.81 92.28L64.2638 118.92C63.3009 119.64 62.0972 120 60.8333 120C59.5694 120 58.3657 119.64 57.4027 118.92L9.85644 92.28C7.93051 91.26 6.66663 89.28 6.66663 87V33C6.66663 30.72 7.93051 28.74 9.85644 27.72L57.4027 1.08C58.3657 0.36 59.5694 0 60.8333 0C62.0972 0 63.3009 0.36 64.2638 1.08L111.81 27.72C113.736 28.74 115 30.72 115 33V87Z" fill="#ff9900"/>
<g clip-path="url(#clip0_401_7)">
<path d="M60.7143 30.5448C59.6155 30.5541 58.5333 30.6473 57.478 30.8333C51.6593 31.8593 46.3001 34.1029 42.3249 37.3414C38.3495 40.5799 35.7534 44.7651 35.2854 49.848L35.2849 49.853L35.2844 49.858C34.2281 60.3436 40.209 68.9043 43.4849 72.5521C44.1361 73.2776 44.3679 74.2489 44.3015 75.1599C44.2353 76.0709 43.9215 76.9716 43.4768 77.8896C42.5875 79.7256 41.1389 81.6471 39.598 83.4468C37.8534 85.4846 36.1761 87.1596 34.8793 88.4001C35.7796 88.2484 36.7248 87.8539 37.713 87.2291C39.5455 86.071 41.4073 84.1698 42.9751 82.0669C44.543 79.9639 45.826 77.6569 46.5754 75.7436C46.9501 74.7869 47.1894 73.9261 47.2771 73.2786C47.3646 72.6314 47.255 72.2299 47.2329 72.1928C45.3154 68.9765 43.3258 65.6894 42.147 62.3038C40.9683 58.9181 40.622 55.3581 42.1379 51.885C45.2908 44.6613 51.8904 41.2494 58.4844 40.6844C65.0606 40.1209 71.7298 42.2339 75.5525 46.2731L78.464 49.0824L87.1208 43.8986C84.5783 40.6094 80.1845 36.9824 75.0908 34.3665C70.8975 32.2133 66.253 30.7443 61.8183 30.563C61.4486 30.548 61.0805 30.5415 60.7143 30.5448ZM75.5525 46.2731L75.5453 46.2659L75.584 46.305C75.5736 46.2941 75.5625 46.2839 75.5525 46.2731Z" fill="white"/>
<path d="M59.6017 42.2817C59.2932 42.2945 58.9849 42.3124 58.6767 42.3389C58.2315 42.377 57.788 42.4301 57.3467 42.4957L58.5502 48.1304C59.2702 47.9257 60.0074 47.7775 60.756 47.6849L59.6017 42.2817ZM65.083 42.739C64.4747 44.3446 64.1667 45.9785 64.2107 47.619C64.965 47.679 65.7215 47.7859 66.4757 47.9386C66.3672 46.4149 66.639 44.8849 67.271 43.3161C66.5635 43.0886 65.8316 42.8957 65.083 42.739ZM51.749 44.2127C50.985 44.5912 50.249 45.0302 49.5475 45.5292C51.7412 46.637 53.26 48.3746 53.8869 50.4785C54.5039 49.9985 55.155 49.5806 55.8324 49.2206C55.0671 47.1885 53.6351 45.4599 51.749 44.2127ZM62.766 49.8122C62.6215 49.812 62.4775 49.814 62.3339 49.8181C61.9995 49.8276 61.6679 49.8484 61.3399 49.8809C56.0907 50.4029 51.6761 53.6631 50.4055 61.1396C50.1307 62.7571 50.9421 66.4924 51.9362 69.5971C52.9302 72.7016 54.0155 75.2867 54.0155 75.2867L54.0785 75.4365L54.0964 75.5984C54.3414 77.8109 52.9576 79.9692 51.4449 82.1309C50.4404 83.5666 49.3911 84.8939 48.4486 86.0959C51.4486 85.9271 54.194 84.5977 56.8457 82.2275C56.8302 82.165 56.8245 82.1387 56.8066 82.0654C56.6984 81.6161 56.5622 80.9782 56.5957 80.2304C56.6515 78.9825 57.305 77.4856 58.948 76.2469C55.8759 71.8694 55.3357 66.4022 55.9405 61.8685L56.0512 61.0372L56.8795 60.906C64.2189 59.7447 69.0352 57.3047 74.297 54.0819C70.8512 51.3469 66.6475 49.8176 62.766 49.8122ZM77.7906 54.5422C71.7376 58.3569 66.3456 61.501 58.0961 62.961C57.6895 67.137 58.3995 71.941 61.2494 75.5607C62.8252 75.637 64.1574 76.4329 64.9874 77.5837C65.8307 78.7529 66.2306 80.229 66.3411 81.7872C69.2521 84.4655 74.2124 86.6652 78.5616 88.8691C78.1654 83.9386 78.5246 79.3266 76.7444 74.6054L68.8891 71.4429L68.8814 71.4395C67.0922 70.6872 65.9649 69.7155 65.5674 68.4357C65.1699 67.1562 65.4581 65.94 65.7159 64.5527L65.9909 63.0712L67.3334 63.7557C70.2592 65.2482 73.7576 66.3207 77.0269 66.2639L77.8496 66.2494L78.1125 67.0291C79.4366 70.9586 79.7265 74.1056 80.0815 77.3045L81.0549 77.6936C81.5706 74.0211 81.2939 69.1079 80.5721 64.6405C79.8892 60.4134 78.7321 56.512 77.7906 54.5422ZM56.9246 82.5565C56.9234 82.612 56.9364 82.6134 56.9259 82.5615L56.9246 82.5565Z" fill="#FFFFFF"/>
</g>
<defs>
<clipPath id="clip0_401_7">
<rect width="64" height="64" fill="white" transform="translate(29 28)"/>
</clipPath>
</defs>
</svg>
