<svg width="120" height="120" viewBox="0 0 120 120" fill="none" xmlns="http://www.w3.org/2000/svg">
<path d="M115 87C115 89.28 113.736 91.26 111.81 92.28L64.2638 118.92C63.3009 119.64 62.0972 120 60.8333 120C59.5694 120 58.3657 119.64 57.4027 118.92L9.85644 92.28C7.93051 91.26 6.66663 89.28 6.66663 87V33C6.66663 30.72 7.93051 28.74 9.85644 27.72L57.4027 1.08C58.3657 0.36 59.5694 0 60.8333 0C62.0972 0 63.3009 0.36 64.2638 1.08L111.81 27.72C113.736 28.74 115 30.72 115 33V87Z" fill="#303039"/>
<path d="M60.9998 86.6667C60.0794 86.6667 59.3332 85.9205 59.3332 85V41.7388L42.5217 58.8352C41.8763 59.4916 40.8211 59.5004 40.1647 58.8551C39.5084 58.2096 39.4995 57.1544 40.1449 56.4981L59.7958 36.5142C59.8074 36.5021 59.8193 36.4901 59.8313 36.4783C60.1185 36.1959 60.482 36.0388 60.8541 36.0063C60.9612 35.997 61.069 35.998 61.176 36.0093C61.5376 36.0474 61.8893 36.2036 62.1686 36.4783C62.1872 36.4966 62.2052 36.5148 62.2226 36.5331L81.855 56.4981C82.5004 57.1544 82.4916 58.2096 81.8352 58.8551C81.1789 59.5004 80.1236 59.4916 79.4782 58.8352L62.6665 41.7387V85C62.6665 85.9205 61.9204 86.6667 60.9998 86.6667Z" fill="white"/>
</svg>
