<svg width="120" height="120" viewBox="0 0 120 120" fill="none" xmlns="http://www.w3.org/2000/svg">
<path d="M115 87C115 89.28 113.736 91.26 111.81 92.28L64.2638 118.92C63.3009 119.64 62.0972 120 60.8333 120C59.5694 120 58.3657 119.64 57.4027 118.92L9.85644 92.28C7.93051 91.26 6.66663 89.28 6.66663 87V33C6.66663 30.72 7.93051 28.74 9.85644 27.72L57.4027 1.08C58.3657 0.36 59.5694 0 60.8333 0C62.0972 0 63.3009 0.36 64.2638 1.08L111.81 27.72C113.736 28.74 115 30.72 115 33V87Z" fill="#303039"/>
<path d="M69 60.5L57 67V54L69 60.5Z" fill="white" stroke="white" stroke-width="1.5" stroke-linecap="round" stroke-linejoin="round"/>
<path d="M36.8334 61.7098V58.29C36.8334 51.2929 36.8334 47.7944 39.0216 45.5433C41.2099 43.2923 44.6551 43.1948 51.5453 42.9999C54.8103 42.9076 58.1455 42.8414 61 42.8414C63.8546 42.8414 67.1899 42.9076 70.4548 42.9999C77.3449 43.1948 80.7901 43.2923 82.9784 45.5433C85.1667 47.7944 85.1667 51.2929 85.1667 58.29V61.7098C85.1667 68.7068 85.1667 72.2054 82.9784 74.4563C80.7901 76.7074 77.3452 76.8048 70.455 76.9998C67.1899 77.0921 63.8546 77.1583 61 77.1583C58.1455 77.1583 54.8102 77.0921 51.5451 76.9998C44.6549 76.8048 41.2099 76.7074 39.0216 74.4563C36.8334 72.2054 36.8334 68.7068 36.8334 61.7098Z" stroke="white" stroke-width="3"/>
</svg>
